<svg width="40" height="40" viewBox="0 0 40 40" fill="none" xmlns="http://www.w3.org/2000/svg">
<path fill-rule="evenodd" clip-rule="evenodd" d="M2.92725 11.0953C2.95084 10.9029 2.98058 10.7123 3.01624 10.5238C3.79663 6.40052 7.41859 3.28223 11.7689 3.28223H28.2313C32.5816 3.28223 36.2035 6.40052 36.9839 10.5238C37.0196 10.7123 37.0493 10.9029 37.0729 11.0953C37.1163 11.2438 37.1396 11.4009 37.1396 11.5635V28.3144C37.1396 31.8173 34.4379 34.6892 31.0046 34.9601C30.9461 34.973 30.8854 34.9797 30.823 34.9797H29.8697C29.4037 34.9797 29.026 34.602 29.026 34.136C29.026 33.6701 29.4037 33.2923 29.8697 33.2923H30.823C30.8502 33.2923 30.877 33.2936 30.9035 33.2961C33.4633 33.0778 35.4729 30.9308 35.4729 28.3144V12.1905H4.52726V28.3144C4.52726 31.0758 6.76584 33.3144 9.52726 33.3144H22.6919L21.2855 32.1706C20.9999 31.9383 20.9566 31.5184 21.189 31.2328C21.4213 30.9471 21.8412 30.9039 22.1268 31.1362L25.5165 33.893L22.1192 36.5745C21.8302 36.8026 21.411 36.7532 21.1829 36.4642C20.9548 36.1752 21.0041 35.756 21.2931 35.5279L21.9859 34.981H9.52726C5.84536 34.981 2.8606 31.9963 2.8606 28.3144V11.5635C2.8606 11.4009 2.88386 11.2438 2.92725 11.0953ZM11.7689 4.94889H28.2313C31.429 4.94889 34.1427 7.02159 35.1021 9.89681H4.89804C5.85744 7.02159 8.57111 4.94889 11.7689 4.94889Z" fill="#333333" fill-opacity="0.5"/>
<path d="M24.3989 25.5347C24.3323 25.5347 24.2756 25.5113 24.2289 25.4647C24.1823 25.418 24.1589 25.3613 24.1589 25.2947V18.7847C24.1589 18.7113 24.1823 18.6513 24.2289 18.6047C24.2756 18.558 24.3323 18.5347 24.3989 18.5347H26.8389C27.5123 18.5347 28.0656 18.638 28.4989 18.8447C28.9389 19.0513 29.2689 19.358 29.4889 19.7647C29.7156 20.1713 29.8323 20.668 29.8389 21.2547C29.8523 21.548 29.8589 21.808 29.8589 22.0347C29.8589 22.2613 29.8523 22.518 29.8389 22.8047C29.8256 23.4247 29.7123 23.938 29.4989 24.3447C29.2856 24.7447 28.9623 25.0447 28.5289 25.2447C28.1023 25.438 27.5556 25.5347 26.8889 25.5347H24.3989ZM25.5489 24.3847H26.8389C27.2123 24.3847 27.5156 24.3313 27.7489 24.2247C27.9823 24.118 28.1523 23.948 28.2589 23.7147C28.3723 23.4747 28.4323 23.1613 28.4389 22.7747C28.4456 22.5747 28.4489 22.4013 28.4489 22.2547C28.4556 22.1013 28.4556 21.9513 28.4489 21.8047C28.4489 21.6513 28.4456 21.478 28.4389 21.2847C28.4256 20.738 28.2889 20.3347 28.0289 20.0747C27.7689 19.8147 27.3556 19.6847 26.7889 19.6847H25.5489V24.3847Z" fill="#333333" fill-opacity="0.5"/>
<path d="M19.8958 25.6346C19.3025 25.6346 18.7925 25.5379 18.3658 25.3446C17.9392 25.1446 17.6058 24.8412 17.3658 24.4346C17.1258 24.0212 16.9958 23.5079 16.9758 22.8946C16.9692 22.6079 16.9658 22.3246 16.9658 22.0446C16.9658 21.7646 16.9692 21.4779 16.9758 21.1846C16.9958 20.5779 17.1292 20.0712 17.3758 19.6646C17.6225 19.2579 17.9592 18.9512 18.3858 18.7446C18.8192 18.5379 19.3225 18.4346 19.8958 18.4346C20.4692 18.4346 20.9725 18.5379 21.4058 18.7446C21.8392 18.9512 22.1792 19.2579 22.4258 19.6646C22.6725 20.0712 22.8058 20.5779 22.8258 21.1846C22.8392 21.4779 22.8458 21.7646 22.8458 22.0446C22.8458 22.3246 22.8392 22.6079 22.8258 22.8946C22.8058 23.5079 22.6758 24.0212 22.4358 24.4346C22.1958 24.8412 21.8592 25.1446 21.4258 25.3446C20.9992 25.5379 20.4892 25.6346 19.8958 25.6346ZM19.8958 24.4846C20.3292 24.4846 20.6825 24.3579 20.9558 24.1046C21.2292 23.8446 21.3758 23.4246 21.3958 22.8446C21.4092 22.5512 21.4158 22.2812 21.4158 22.0346C21.4158 21.7812 21.4092 21.5112 21.3958 21.2246C21.3825 20.8379 21.3092 20.5246 21.1758 20.2846C21.0492 20.0379 20.8758 19.8612 20.6558 19.7546C20.4358 19.6412 20.1825 19.5846 19.8958 19.5846C19.6158 19.5846 19.3658 19.6412 19.1458 19.7546C18.9258 19.8612 18.7492 20.0379 18.6158 20.2846C18.4892 20.5246 18.4192 20.8379 18.4058 21.2246C18.3992 21.5112 18.3958 21.7812 18.3958 22.0346C18.3958 22.2812 18.3992 22.5512 18.4058 22.8446C18.4258 23.4246 18.5725 23.8446 18.8458 24.1046C19.1192 24.3579 19.4692 24.4846 19.8958 24.4846Z" fill="#333333" fill-opacity="0.5"/>
<path d="M13.0699 25.6346C12.4499 25.6346 11.9232 25.5279 11.4899 25.3146C11.0632 25.0946 10.7365 24.7846 10.5099 24.3846C10.2832 23.9779 10.1565 23.4912 10.1299 22.9246C10.1232 22.6512 10.1199 22.3579 10.1199 22.0446C10.1199 21.7312 10.1232 21.4312 10.1299 21.1446C10.1565 20.5846 10.2832 20.1012 10.5099 19.6946C10.7432 19.2879 11.0732 18.9779 11.4999 18.7646C11.9332 18.5446 12.4565 18.4346 13.0699 18.4346C13.5232 18.4346 13.9299 18.4946 14.2899 18.6146C14.6499 18.7346 14.9565 18.9012 15.2099 19.1146C15.4632 19.3212 15.6599 19.5646 15.7999 19.8446C15.9399 20.1246 16.0132 20.4279 16.0199 20.7546C16.0265 20.8146 16.0065 20.8646 15.9599 20.9046C15.9199 20.9446 15.8699 20.9646 15.8099 20.9646H14.8599C14.7865 20.9646 14.7265 20.9479 14.6799 20.9146C14.6332 20.8746 14.5999 20.8112 14.5799 20.7246C14.4732 20.2846 14.2899 19.9846 14.0299 19.8246C13.7699 19.6646 13.4465 19.5846 13.0599 19.5846C12.6132 19.5846 12.2565 19.7112 11.9899 19.9646C11.7232 20.2112 11.5799 20.6212 11.5599 21.1946C11.5399 21.7412 11.5399 22.3012 11.5599 22.8746C11.5799 23.4479 11.7232 23.8612 11.9899 24.1146C12.2565 24.3612 12.6132 24.4846 13.0599 24.4846C13.4465 24.4846 13.7699 24.4046 14.0299 24.2446C14.2899 24.0779 14.4732 23.7779 14.5799 23.3446C14.5999 23.2512 14.6332 23.1879 14.6799 23.1546C14.7265 23.1212 14.7865 23.1046 14.8599 23.1046H15.8099C15.8699 23.1046 15.9199 23.1246 15.9599 23.1646C16.0065 23.2046 16.0265 23.2546 16.0199 23.3146C16.0132 23.6412 15.9399 23.9446 15.7999 24.2246C15.6599 24.5046 15.4632 24.7512 15.2099 24.9646C14.9565 25.1712 14.6499 25.3346 14.2899 25.4546C13.9299 25.5746 13.5232 25.6346 13.0699 25.6346Z" fill="#333333" fill-opacity="0.5"/>
</svg>
