<svg width="40" height="40" viewBox="0 0 40 40" fill="none" xmlns="http://www.w3.org/2000/svg">
<path d="M20.0862 38.3332C9.93521 38.3332 1.66675 30.1016 1.66675 19.9137V19.4338C2.03588 9.28284 10.5627 1.30969 20.7137 1.67882C30.5694 2.01104 38.3949 10.058 38.4688 19.9137V20.3936C38.2104 30.36 30.0527 38.2963 20.0862 38.3332ZM2.66339 20.3936C3.06943 30.0278 11.2272 37.4842 20.8245 37.0781C30.0527 36.6721 37.3614 29.1419 37.509 19.9137V19.4338C37.1399 9.79962 29.056 2.26943 19.4218 2.63855C10.1567 2.97077 2.73722 10.5748 2.66339 19.9137V20.3936Z" fill="#333333" fill-opacity="0.5"/>
<path d="M9.89835 15.8167C9.82452 15.8167 9.7507 15.8167 9.71378 15.7798C9.49231 15.6691 9.38157 15.4107 9.45539 15.1523C11.3379 10.9811 15.5091 8.36033 20.0863 8.43416C24.6265 8.36033 28.7977 10.9442 30.7171 15.0415C30.8279 15.263 30.7171 15.5583 30.4587 15.6691C30.2373 15.7798 29.942 15.6691 29.8312 15.4107C28.0594 11.6825 24.2574 9.32006 20.0863 9.39389C15.9151 9.28315 12.0762 11.6825 10.3413 15.4845C10.2675 15.6691 10.0829 15.8167 9.89835 15.8167Z" fill="#333333" fill-opacity="0.5"/>
<path d="M16.9116 14.9676C16.9116 14.7831 16.9116 14.5247 16.9116 14.3032C16.8747 14.5247 16.8009 14.7462 16.7271 14.9307L16.5425 15.5213H16.2472L16.0626 14.8938C15.9888 14.6723 15.9519 14.4878 15.915 14.2663C15.915 14.4878 15.915 14.7462 15.915 14.9307V15.5582H15.5828L15.6935 13.9341H16.1734L16.321 14.4878C16.3579 14.6723 16.4318 14.8938 16.4687 15.1153C16.5056 14.9307 16.5794 14.7092 16.6163 14.4878L16.8009 13.9341H17.2808V15.5582H16.9116V14.9676Z" fill="#333333" fill-opacity="0.5"/>
<path d="M17.9454 15.1888L17.8347 15.5949H17.4656L17.9454 13.9707H18.4253L18.9421 15.5949H18.536L18.4253 15.1519L17.9454 15.1888ZM18.3884 14.8935L18.2777 14.5613C18.2407 14.4506 18.2038 14.3398 18.2038 14.2291C18.2038 14.3398 18.1669 14.4506 18.13 14.5613L18.0193 14.8935H18.3884Z" fill="#333333" fill-opacity="0.5"/>
<path d="M19.1633 14.0076C19.311 13.9707 19.4955 13.9707 19.6801 13.9707C19.9016 13.9707 20.16 14.0076 20.3445 14.1553C20.5291 14.3029 20.6398 14.5244 20.6029 14.7828C20.6029 15.0412 20.5291 15.2626 20.3445 15.4472C20.1231 15.5949 19.8647 15.6687 19.6063 15.6687C19.4586 15.6687 19.311 15.6687 19.2002 15.6687L19.1633 14.0076ZM19.5325 15.3365H19.6801C19.9385 15.3734 20.1969 15.1519 20.2338 14.8935C20.2338 14.8566 20.2338 14.8197 20.2338 14.7828C20.2707 14.5244 20.0861 14.3029 19.8278 14.266C19.7908 14.266 19.7539 14.266 19.717 14.266C19.6432 14.266 19.6063 14.266 19.5325 14.266V15.3365Z" fill="#333333" fill-opacity="0.5"/>
<path d="M21.8211 14.8935H21.1936V15.2996H21.858V15.5949H20.8245V13.9707H21.8211V14.266H21.1936V14.5982H21.8211V14.8935Z" fill="#333333" fill-opacity="0.5"/>
<path d="M23.0022 13.9707V15.5949H22.6331V13.9707H23.0022Z" fill="#333333" fill-opacity="0.5"/>
<path d="M23.3345 15.5949V13.9707H23.7774L24.1096 14.5982C24.2204 14.7828 24.2942 14.9673 24.368 15.1519C24.3311 14.9304 24.3311 14.709 24.3311 14.4875V14.0076H24.6633V15.5949H24.2573L23.9251 14.9673C23.8143 14.7828 23.7405 14.5982 23.6298 14.3767C23.6298 14.5982 23.6298 14.8197 23.6298 15.0781V15.558H23.3345V15.5949Z" fill="#333333" fill-opacity="0.5"/>
<path d="M7.86791 27.1118C8.01556 27.2595 8.1263 27.444 8.23703 27.6286C8.38469 27.8132 8.45851 28.0346 8.45851 28.2561C8.4216 28.4407 8.34777 28.5883 8.16321 28.6991C8.01556 28.8098 7.83099 28.8467 7.64643 28.8098C7.42495 28.736 7.20348 28.5883 7.09274 28.3669C7.05583 28.3299 7.01891 28.293 7.01891 28.2192L6.42831 28.5883L6.16992 28.2192L7.86791 27.1118ZM7.35113 27.9977C7.35113 28.0346 7.38804 28.1085 7.42495 28.1454C7.57261 28.3668 7.75717 28.4038 7.94173 28.293C8.08938 28.1823 8.1263 27.9977 8.01556 27.8501L7.97865 27.8132C7.94173 27.7393 7.90482 27.7024 7.86791 27.6655L7.35113 27.9977Z" fill="#333333" fill-opacity="0.5"/>
<path d="M8.97543 28.7358C9.12308 28.8835 9.27073 29.0311 9.41838 29.1788C9.60295 29.3264 9.71369 29.5479 9.7506 29.8063C9.7506 29.9909 9.67677 30.1385 9.56603 30.2493C9.38147 30.3969 9.15999 30.4338 8.93852 30.3231C8.97543 30.4707 8.93852 30.6553 8.82778 30.766C8.71704 30.9137 8.6063 31.0983 8.49557 31.2828L8.16335 30.9137C8.23718 30.766 8.311 30.6184 8.42174 30.4707C8.56939 30.2493 8.56939 30.1385 8.42174 29.9909L8.311 29.8801L7.68349 30.4338L7.38818 30.1016L8.97543 28.7358ZM8.6063 29.6587L8.71704 29.8063C8.86469 29.9909 9.04926 30.0278 9.19691 29.8801C9.34456 29.7694 9.34456 29.5848 9.19691 29.4372C9.15999 29.4003 9.08617 29.3264 9.04926 29.2895L8.6063 29.6587Z" fill="#333333" fill-opacity="0.5"/>
<path d="M10.5256 31.9104L9.93503 31.3936L9.60281 31.7627L10.2303 32.3164L9.97194 32.6117L9.01221 31.7627L10.378 30.2124L11.3746 31.0614L11.1162 31.3567L10.4887 30.8399L10.1934 31.1721L10.7471 31.652L10.5256 31.9104Z" fill="#333333" fill-opacity="0.5"/>
<path d="M12.5559 33.3868C12.6667 33.1654 12.8143 32.907 12.9989 32.6486C12.8143 32.8332 12.5929 33.0546 12.3714 33.2023L11.7439 33.756L11.4486 33.5714L11.67 32.7593C11.7439 32.5009 11.8177 32.2425 11.9284 31.9842C11.7808 32.2056 11.5962 32.464 11.4486 32.6855L11.0056 33.313L10.6365 33.0915L11.8177 31.3936L12.3345 31.7258L12.1499 32.4271C12.0761 32.6486 12.0022 32.907 11.8915 33.1285C12.0761 32.9439 12.2606 32.7593 12.4452 32.6117L13.0727 32.1318L13.5895 32.464L12.5929 34.2727L12.1868 34.0513L12.5559 33.3868Z" fill="#333333" fill-opacity="0.5"/>
<path d="M14.623 32.9438L13.8109 34.8264L13.3679 34.6418L14.18 32.7593L14.623 32.9438Z" fill="#333333" fill-opacity="0.5"/>
<path d="M15.6197 33.3499L15.2875 34.4573C15.1767 34.7895 15.2875 35.011 15.5089 35.0848C15.7304 35.1586 15.915 35.011 16.0257 34.6788L16.3948 33.4975L16.8378 33.6452L16.5056 34.7526C16.4318 35.1955 16.0257 35.4908 15.5828 35.417C15.5089 35.417 15.472 35.3801 15.3982 35.3801C14.9183 35.2324 14.6969 34.8633 14.8814 34.2358L15.2136 33.1284L15.6197 33.3499Z" fill="#333333" fill-opacity="0.5"/>
<path d="M18.9419 35.3063C18.9419 35.0479 18.9788 34.7526 19.0157 34.4573C18.905 34.7157 18.7942 35.011 18.6835 35.2325L18.3144 36.0076L17.9452 35.9707L17.8714 35.1586C17.8345 34.9003 17.7976 34.605 17.7607 34.3466C17.7238 34.6419 17.6868 34.9741 17.613 35.1956L17.5023 35.9338L17.0593 35.8969L17.4285 33.8667L18.056 33.9405L18.1667 34.6419C18.2036 34.9003 18.2405 35.1586 18.2405 35.3801C18.3144 35.1586 18.4251 34.9003 18.5358 34.6788L18.8311 34.0144L19.4587 34.0882L19.3479 36.1184L18.905 36.0815L18.9419 35.3063Z" fill="#333333" fill-opacity="0.5"/>
<path d="M23.0392 36.2291C22.7439 36.1922 22.4855 36.1183 22.1902 36.0445C22.1533 36.0445 22.0795 36.0445 22.0426 36.0445C21.5258 36.0814 21.0459 35.6754 21.009 35.1586C21.009 35.1586 21.009 35.1586 21.009 35.1217C20.8983 34.568 21.2305 34.0512 21.7842 33.9405C21.8211 33.9405 21.858 33.9405 21.858 33.9405C22.4486 33.9036 22.9285 34.3834 22.9654 34.974C22.9654 35.3062 22.8546 35.6015 22.5963 35.823C22.7808 35.823 22.9285 35.8599 23.113 35.8968L23.0392 36.2291ZM22.4855 34.9002C22.4486 34.5311 22.2271 34.2358 21.8949 34.2727C21.5627 34.3096 21.4151 34.6418 21.4889 35.0109C21.5627 35.3801 21.7473 35.6754 22.0795 35.6385C22.4117 35.6015 22.5593 35.3062 22.4855 34.9002Z" fill="#333333" fill-opacity="0.5"/>
<path d="M23.8143 33.5718L24.1466 34.7161C24.2573 35.0483 24.4419 35.1959 24.6633 35.1221C24.8848 35.0483 24.9955 34.8268 24.8848 34.4946L24.5157 33.3503L24.9586 33.2026L25.2908 34.31C25.4754 34.7161 25.3278 35.1959 24.9217 35.3805C24.8848 35.4543 24.811 35.4543 24.7372 35.4912C24.2573 35.6389 23.8513 35.4543 23.6667 34.8268L23.3345 33.7194L23.8143 33.5718Z" fill="#333333" fill-opacity="0.5"/>
<path d="M26.5092 34.1989L26.6199 34.7526L26.1769 34.974L25.8447 32.8331L26.3984 32.5747L27.8749 34.162L27.432 34.3465L27.0628 33.9405L26.5092 34.1989ZM26.8414 33.6821L26.5461 33.3499L26.2877 33.0177C26.2877 33.1284 26.3615 33.313 26.3615 33.4237L26.4353 33.8667L26.8414 33.6821Z" fill="#333333" fill-opacity="0.5"/>
<path d="M27.395 32.0211L27.8011 31.7627L28.7239 33.1654L29.3883 32.7224L29.6098 33.0546L28.5393 33.756L27.395 32.0211Z" fill="#333333" fill-opacity="0.5"/>
<path d="M29.2036 30.6924L30.5324 32.2796L30.1633 32.5749L28.8713 30.9877L29.2036 30.6924Z" fill="#333333" fill-opacity="0.5"/>
<path d="M30.2743 30.2862L29.8683 30.6922L29.573 30.4338L30.6804 29.2896L30.9757 29.5849L30.5696 29.9909L31.7509 31.1721L31.4186 31.5043L30.2743 30.2862Z" fill="#333333" fill-opacity="0.5"/>
<path d="M32.9321 29.7695L32.2676 29.2527L30.9019 29.0312L31.2341 28.5882L31.7508 28.699L32.1569 28.8097L31.9354 28.4406L31.677 27.9607L31.9723 27.5547L32.526 28.8097L33.2274 29.3265L32.9321 29.7695Z" fill="#333333" fill-opacity="0.5"/>
<path d="M6.68701 13.8969C6.76084 13.6755 6.83466 13.4909 6.90849 13.2694C6.98231 13.0479 7.12996 12.9003 7.31453 12.7526C7.49909 12.6788 7.68366 12.6788 7.83131 12.7526C8.01587 12.8265 8.12661 12.9741 8.20043 13.1218C8.27426 13.3432 8.23735 13.6016 8.12661 13.8231C8.12661 13.8969 8.05278 13.9338 8.05278 13.9708L8.71721 14.303L8.53265 14.709L6.68701 13.8969ZM7.72057 13.8969C7.75748 13.86 7.79439 13.8231 7.79439 13.7493C7.90513 13.6016 7.86822 13.3802 7.72057 13.2694C7.72057 13.2694 7.68366 13.2694 7.68366 13.2325C7.49909 13.1587 7.35144 13.2325 7.2407 13.454C7.20379 13.5278 7.20379 13.5647 7.16688 13.6385L7.72057 13.8969Z" fill="#333333" fill-opacity="0.5"/>
<path d="M7.72021 11.7931C7.83095 11.6085 7.90478 11.4239 8.05243 11.2763C8.16317 11.0548 8.34773 10.9072 8.56921 10.8333C8.71686 10.7964 8.90142 10.8333 9.04907 10.9072C9.23364 11.0548 9.34438 11.3132 9.27055 11.5347C9.4182 11.4608 9.60277 11.4608 9.75042 11.5347C9.93498 11.6085 10.1195 11.6823 10.341 11.7192L10.0826 12.1253C9.93498 12.0884 9.75042 12.0514 9.60277 11.9776C9.34438 11.8669 9.23364 11.9038 9.15981 12.0514L9.08599 12.1622L9.75042 12.6051L9.49203 12.9743L7.72021 11.7931ZM8.71686 11.9407L8.8276 11.7931C8.97525 11.6085 8.93834 11.4239 8.79068 11.3132C8.64303 11.2025 8.49538 11.2394 8.34773 11.4239C8.31082 11.4978 8.27391 11.5347 8.23699 11.6085L8.71686 11.9407Z" fill="#333333" fill-opacity="0.5"/>
<path d="M10.8212 9.83659L10.2675 10.3534L10.6367 10.6856L11.2273 10.0581L11.5226 10.3165L10.6367 11.2762L9.16016 9.8735L10.0461 8.95068L10.3414 9.20907L9.78767 9.83659L10.1199 10.1319L10.6367 9.5782L10.8212 9.83659Z" fill="#333333" fill-opacity="0.5"/>
<path d="M12.8513 8.3232C12.7037 8.13863 12.5191 7.88024 12.3346 7.65877C12.4453 7.91716 12.556 8.21246 12.6299 8.43393L12.8883 9.24601L12.593 9.46749L11.9654 8.9138C11.744 8.72924 11.5594 8.54467 11.3379 8.36011L11.8178 9.06145L12.2607 9.72588L11.8916 9.98427L10.7473 8.24937L11.2641 7.88024L11.8178 8.3232C12.0023 8.47085 12.2238 8.65541 12.4084 8.80306C12.2976 8.58158 12.2238 8.3232 12.15 8.10172L11.8916 7.40038L12.3715 7.03125L13.6634 8.6185L13.2943 8.87689L12.8513 8.3232Z" fill="#333333" fill-opacity="0.5"/>
<path d="M13.7373 6.3667L14.6602 8.21234L14.2541 8.43381L13.3313 6.58818L13.7373 6.3667Z" fill="#333333" fill-opacity="0.5"/>
<path d="M14.992 5.81327L15.3981 6.92065C15.5088 7.25286 15.6934 7.3636 15.9148 7.28978C16.1363 7.21595 16.2101 6.99447 16.0994 6.66226L15.6934 5.55488L16.1363 5.40723L16.5054 6.51461C16.7269 6.92065 16.5793 7.40051 16.1732 7.62199C16.0994 7.6589 16.0625 7.69582 15.9887 7.69582C15.5088 7.88038 15.1028 7.69582 14.9182 7.0683L14.5491 5.99783L14.992 5.81327Z" fill="#333333" fill-opacity="0.5"/>
<path d="M19.0526 6.18208C19.0157 5.92369 18.9788 5.62839 18.9419 5.33309C18.9419 5.59148 18.8681 5.88678 18.8311 6.14517L18.6835 6.95725L18.3144 6.99416L17.9822 6.25591C17.8714 5.99752 17.7976 5.73913 17.6868 5.48074C17.6868 5.77604 17.7238 6.10826 17.7607 6.32973L17.8345 7.1049L17.3915 7.17873L17.2439 5.11161L17.8714 5.0747L18.1667 5.73913C18.2775 5.96061 18.3513 6.219 18.4251 6.44047C18.4251 6.18208 18.4989 5.92369 18.5358 5.6653L18.6835 4.96396L19.311 4.89014L19.6801 6.92034L19.2372 6.99416L19.0526 6.18208Z" fill="#333333" fill-opacity="0.5"/>
<path d="M22.7808 7.58476C22.5224 7.47402 22.264 7.32637 22.0056 7.17872C21.9687 7.1418 21.9318 7.1418 21.8579 7.10489C21.3412 6.99415 21.0089 6.47737 21.1197 5.9606C21.1197 5.9606 21.1197 5.9606 21.1197 5.92368C21.1566 5.36999 21.6365 4.96395 22.1902 5.00086C22.2271 5.00086 22.264 5.00086 22.264 5.00086C22.8546 5.14851 23.1868 5.70221 23.0391 6.29281C22.9653 6.62502 22.7438 6.88341 22.4485 7.03106C22.5962 7.10489 22.7808 7.17872 22.9284 7.21563L22.7808 7.58476ZM22.6331 6.14516C22.7069 5.77603 22.5593 5.44382 22.2271 5.4069C21.8949 5.36999 21.6734 5.62838 21.5996 6.03442C21.5257 6.44046 21.6734 6.73576 22.0056 6.80959C22.3009 6.80959 22.5593 6.5512 22.6331 6.14516Z" fill="#333333" fill-opacity="0.5"/>
<path d="M24.5895 5.59179L24.1835 6.69917C24.0727 7.03139 24.1097 7.25286 24.368 7.32669C24.5895 7.40051 24.7741 7.28978 24.8848 6.95756L25.2909 5.85018L25.7338 5.99783L25.3647 7.0683C25.2909 7.51125 24.8848 7.80656 24.4419 7.73273C24.368 7.73273 24.2942 7.69582 24.2573 7.6589C23.7774 7.47434 23.5929 7.10521 23.7774 6.4777L24.1466 5.40723L24.5895 5.59179Z" fill="#333333" fill-opacity="0.5"/>
<path d="M26.2139 7.95406L25.8079 8.3601L25.4019 8.13862L26.9522 6.66211L27.5059 6.95741L27.0629 9.06144L26.5831 8.80305L26.6938 8.24936L26.2139 7.95406ZM26.8045 7.91714L26.9153 7.47419C26.9522 7.36345 26.9891 7.2158 27.026 7.06815C26.9522 7.17889 26.8415 7.28963 26.7307 7.36345L26.3985 7.69567L26.8045 7.91714Z" fill="#333333" fill-opacity="0.5"/>
<path d="M28.7236 7.73242L29.0927 8.02772L28.0592 9.31967L28.6867 9.83645L28.4283 10.1318L27.4316 9.31967L28.7236 7.73242Z" fill="#333333" fill-opacity="0.5"/>
<path d="M30.6066 9.39374L29.1301 10.8333L28.7979 10.5011L30.2744 9.06152L30.6066 9.39374Z" fill="#333333" fill-opacity="0.5"/>
<path d="M31.123 10.6483L30.7908 10.2054L31.0861 9.98389L32.0459 11.2389L31.7506 11.4604L31.4183 11.0174L30.0895 12.051L29.7942 11.6819L31.123 10.6483Z" fill="#333333" fill-opacity="0.5"/>
<path d="M30.9385 13.3062L31.6767 12.9002L32.4519 11.7559L32.7103 12.2357L32.3781 12.6418L32.1197 12.974L32.5626 12.9371L33.0794 12.9002L33.3378 13.3431H31.972L31.16 13.7122L30.9385 13.3062Z" fill="#333333" fill-opacity="0.5"/>
<path d="M8.6432 16.5918V23.716H7.01904V16.5918H8.6432Z" fill="#333333" fill-opacity="0.5"/>
<path d="M10.0459 23.716V16.5918H11.8915L13.368 19.2126C13.811 19.9878 14.217 20.7998 14.5493 21.6488C14.4385 20.6522 14.4016 19.6556 14.4385 18.6958V16.6287H15.915V23.7529H14.217L12.7036 20.9844C12.2607 20.1723 11.8177 19.3233 11.4486 18.4743H11.4117C11.4486 19.3972 11.4855 20.4307 11.4855 21.575V23.716H10.0459Z" fill="#333333" fill-opacity="0.5"/>
<path d="M17.3179 16.7024C18.0192 16.5917 18.7575 16.5548 19.4588 16.5548C20.4924 16.481 21.5259 16.7393 22.3749 17.33C23.187 17.9575 23.63 18.991 23.593 20.0246C23.6669 21.132 23.2239 22.1655 22.4118 22.9038C21.4521 23.5682 20.3078 23.9004 19.1266 23.8266C18.4991 23.8266 17.9085 23.7897 17.3179 23.7159V16.7024ZM18.942 22.4977C19.1266 22.4977 19.3112 22.4977 19.4957 22.4977C20.9353 22.4977 21.8951 21.7226 21.8951 20.0246C22.0058 18.9172 21.2306 17.8836 20.0863 17.7729C19.9387 17.7729 19.791 17.7729 19.6434 17.7729C19.385 17.7729 19.1635 17.7729 18.9051 17.8467L18.942 22.4977Z" fill="#333333" fill-opacity="0.5"/>
<path d="M26.2875 16.5918V23.716H24.6633V16.5918H26.2875Z" fill="#333333" fill-opacity="0.5"/>
<path d="M29.3143 21.9069L28.7975 23.7526H27.1365L29.3143 16.6284H31.4184L33.6331 23.7157H31.8982L31.3445 21.87L29.3143 21.9069ZM31.1231 20.6888L30.6801 19.1754C30.5694 18.7694 30.4217 18.2157 30.311 17.8096C30.2002 18.2526 30.0895 18.7694 29.9788 19.1754L29.5727 20.6888H31.1231Z" fill="#333333" fill-opacity="0.5"/>
<path d="M13.612 27.8458C13.612 27.8458 14.0675 26.8125 16.1742 26.8668C16.5727 26.8668 17.0282 26.7581 17.3699 26.5949C17.7684 26.4862 18.167 26.4862 18.6225 26.4862C19.8182 26.5949 21.0708 26.4862 22.2665 26.2142C22.4373 25.9423 22.7789 25.7792 23.1205 25.7792C23.3483 25.7792 23.5191 25.7248 23.7469 25.6704C24.0315 25.5073 24.7148 25.3441 24.9425 25.7792C24.9425 25.7792 25.455 25.8879 25.398 26.2686C25.398 26.2686 25.398 26.3774 25.5119 26.323C25.5688 26.2686 25.6258 26.2686 25.6827 26.1599C25.6827 26.2142 25.6827 26.323 25.6258 26.3774C25.6258 26.3774 25.8535 26.6493 25.8535 26.7581C25.8535 26.8125 25.8535 26.8668 25.9105 26.8668L26.366 27.3563C26.366 27.3563 26.4798 27.5194 26.366 27.5738C26.2521 27.6282 26.366 27.737 26.1382 27.7914C25.9105 27.8458 25.5119 27.7914 25.455 27.8458C25.398 27.9001 25.3411 28.0089 25.455 28.0089C25.5688 28.0089 25.6827 27.9001 25.6827 28.0089C25.7397 28.1177 25.8535 28.1177 25.7966 28.2264C25.7397 28.3352 25.8535 28.7159 25.6827 28.6615C25.5119 28.6071 25.398 28.6615 25.398 28.6071C25.398 28.5527 25.2272 28.444 25.2272 28.444C25.2272 28.444 25.2272 28.7159 25.0564 28.8247C24.8856 28.879 24.8856 28.9878 24.9425 29.0422C24.9995 29.151 24.7717 29.0422 24.7148 28.7159C24.7148 28.7159 24.544 29.0422 24.3162 29.0966V28.879C24.3162 28.879 24.2024 29.3141 23.9746 29.4229L24.0315 29.9667L24.3162 30.4562C24.3162 30.4562 24.9995 30.5649 24.7148 30.9456H23.9746C23.9177 30.9456 23.8607 30.9456 23.8607 30.8369C23.8607 30.7281 23.8038 30.6737 23.7469 30.5649C23.633 30.5106 23.576 30.5649 23.4622 30.293C23.2344 29.9667 23.0067 29.6404 22.7789 29.3685C22.6081 29.3685 22.4373 29.3141 22.2665 29.2597C22.2095 29.2053 22.0957 29.0966 22.0387 29.0422C21.8679 29.2053 21.754 29.4229 21.6402 29.586C21.4694 29.8579 21.1847 30.1842 21.2416 30.293C21.2985 30.4562 21.6971 30.5649 21.6971 30.6737C21.5832 30.8369 21.4124 30.8912 21.2416 30.8912C21.0139 30.8912 20.3875 30.8912 20.7292 30.5106C20.7292 30.5106 20.7292 30.5105 20.6722 30.4018C20.6153 30.293 20.6153 30.1299 20.6722 30.0211C20.7861 29.8579 20.7861 29.4773 20.9 29.2597C20.9569 29.151 21.0139 29.0422 21.0139 28.879C20.4445 28.9334 19.932 28.879 19.4196 28.6071C19.4196 28.6071 19.078 28.6071 19.021 29.0422C19.021 29.2053 18.9641 29.3685 18.9072 29.4773C18.7933 29.6404 18.6794 29.7492 18.7933 29.8579C18.9072 30.0211 19.078 30.1842 19.2488 30.293H19.5904C19.5904 30.293 20.1029 30.4562 19.7043 30.7281L18.8502 31L17.7115 30.0755V29.586C17.7115 29.586 17.7115 29.151 17.5407 29.151C17.3699 29.151 17.3699 29.2597 17.256 29.2597C17.0852 29.2597 16.9144 29.3141 16.8574 29.4229C16.7435 29.6404 16.345 29.7492 16.288 29.7492C16.1742 29.8579 16.0603 30.0755 16.0603 30.2386C16.0603 30.5106 16.0603 30.5106 16.0603 30.5106C16.0603 30.5106 16.8005 30.4018 16.5727 30.9456H16.4589H15.7187C15.6617 30.7825 15.6048 30.5649 15.4909 30.4018C15.4909 30.293 15.3771 30.4018 15.3771 30.1842C15.3771 29.9667 15.3771 29.3685 15.3771 29.3685C15.3771 29.3685 15.3201 29.3141 15.4909 29.2597H15.6617C15.6617 29.0422 15.7187 28.879 15.8326 28.6615C15.9464 28.3896 16.4019 27.6282 16.4589 27.5195C16.5158 27.3563 16.5727 27.2475 16.6297 27.0844H15.0354C15.0354 27.0844 14.0675 27.2475 13.9536 27.9001C13.8967 28.2264 14.0675 28.5527 14.4091 28.7159C14.8077 28.7159 15.2062 28.879 15.434 29.2597C15.434 29.2597 14.6369 29.6948 14.2383 28.9878C13.7259 28.879 13.4981 28.3352 13.612 27.8458Z" fill="#333333" fill-opacity="0.5"/>
<path d="M34.3715 18.917L34.593 19.5814H35.2944L34.7038 19.9875L34.9252 20.6519L34.3715 20.2089L33.8179 20.6519L34.0393 19.9875L33.4487 19.5814H34.1501L34.3715 18.917Z" fill="#333333" fill-opacity="0.5"/>
<path d="M5.24753 18.917L5.469 19.5814H6.13343L5.57974 19.9875L5.80122 20.6519L5.24753 20.2089L4.65692 20.6519L4.8784 19.9875L4.32471 19.5814H5.02605L5.24753 18.917Z" fill="#333333" fill-opacity="0.5"/>
</svg>
