<svg width="40" height="40" viewBox="0 0 40 40" fill="none" xmlns="http://www.w3.org/2000/svg">
<path d="M8.07153 32.8343L13.5709 35.3007C14.8754 35.7796 16.8083 35.8056 21.444 35.8295C25.186 35.8335 25.6747 35.8335 26.3848 35.8335C28.1182 35.8335 28.7984 35.6719 29.6143 34.8657C31.8982 32.7545 34.1821 30.6453 36.4681 28.534C37.3397 27.7299 37.3397 26.4108 36.4681 25.6067C35.5964 24.8004 34.1682 24.8004 33.2964 25.6067L28.4952 30.0406C28.0983 30.4078 27.2845 30.5115 26.3928 30.5095C24.1927 30.5036 20.6521 30.4976 18.4519 30.4936C17.5125 30.4936 16.7445 29.7852 16.7445 28.9171C16.7445 28.0491 17.5125 27.3387 18.4519 27.3387H23.0018C24.061 27.3387 24.9247 26.5405 24.9247 25.5628C24.9247 24.5869 24.061 23.7868 23.0018 23.7868H11.8296C10.2897 23.7868 8.91928 24.4992 8.07153 25.5867" stroke="#333333" stroke-opacity="0.5" stroke-width="1.4" stroke-miterlimit="10" stroke-linecap="round" stroke-linejoin="round"/>
<path d="M8.07117 33.9459V24.4773C8.07117 23.5554 7.25538 22.7991 6.25606 22.7991H4.31519C3.3158 22.7991 2.5 23.5554 2.5 24.4773V33.9459C2.5 34.8678 3.3158 35.6221 4.31519 35.6221H6.25606C7.25538 35.6221 8.07117 34.8678 8.07117 33.9459Z" stroke="#333333" stroke-opacity="0.5" stroke-width="1.4" stroke-miterlimit="10" stroke-linecap="round" stroke-linejoin="round"/>
<path d="M30.6277 10.2109L30.6302 10.2134" stroke="#333333" stroke-opacity="0.5" stroke-width="1.4" stroke-miterlimit="10" stroke-linecap="round" stroke-linejoin="round"/>
<path d="M12.302 16.6524C10.9096 15.8203 9.77669 14.4135 8.90298 12.7852C8.02335 11.1448 7.5466 9.41275 7.5606 7.77848C7.56658 7.05417 7.73012 6.9743 8.33052 6.65102L12.9342 4.16662L17.5381 6.65102C18.1384 6.9743 18.3 7.05417 18.306 7.77848C18.322 9.41275 17.8432 11.1448 16.9636 12.7852C16.0899 14.4135 14.9589 15.8203 13.5666 16.6524C13.0081 16.9857 12.8585 16.9857 12.302 16.6524Z" stroke="#333333" stroke-opacity="0.5" stroke-width="1.4" stroke-miterlimit="10" stroke-linecap="round" stroke-linejoin="round"/>
<path d="M11.3525 23.8107C10.9076 22.5396 10.6643 21.1746 10.6643 19.7518C10.6643 18.4068 10.8797 17.1138 11.2806 15.9045M32.8094 12.4983C34.3014 14.5296 35.1811 17.0379 35.1811 19.7518C35.1811 21.7114 34.7203 23.5652 33.9024 25.2075M18.29 8.39549C19.7182 7.81085 21.284 7.48757 22.9237 7.48757C24.6929 7.48757 26.3765 7.86272 27.8965 8.53918" stroke="#333333" stroke-opacity="0.5" stroke-width="1.4" stroke-miterlimit="10" stroke-linecap="round" stroke-linejoin="round"/>
<path d="M11.4143 10.3651L12.6231 11.4966L15.1284 8.9264" stroke="#333333" stroke-opacity="0.5" stroke-width="1.4" stroke-miterlimit="10" stroke-linecap="round" stroke-linejoin="round"/>
<path d="M26.242 16.0483H24.4261C24.7119 16.4014 24.8548 16.8259 24.8548 17.3219V17.4733H26.242V18.2299H24.8548C24.8548 18.6923 24.7161 19.0958 24.4387 19.4405C24.1697 19.7767 23.7872 20.0205 23.2912 20.1719V20.1845C23.8208 20.4619 24.2033 20.9957 24.4387 21.786L25.1575 24.1441H24.1991L23.4803 21.786C23.3542 21.374 23.1482 21.042 22.8624 20.7898C22.5766 20.5376 22.2655 20.4115 21.9292 20.4115H19.2559V19.5792H22.4084C22.8624 19.5792 23.2281 19.4573 23.5055 19.2135C23.783 18.9613 23.9217 18.6334 23.9217 18.2299H19.2559V17.4733H23.9217V17.2715C23.9217 16.9352 23.8124 16.6662 23.5938 16.4644C23.3752 16.2543 23.0852 16.1492 22.7237 16.1492H19.2559V15.3169H26.242V16.0483Z" fill="#333333" fill-opacity="0.5"/>
</svg>
