<svg width="40" height="40" viewBox="0 0 40 40" fill="none" xmlns="http://www.w3.org/2000/svg">
<g clip-path="url(#clip0_8177_61083)">
<path d="M33.0816 25.552C33.0808 24.8627 32.8067 24.2019 32.3193 23.7145C31.8319 23.2272 31.1711 22.953 30.4819 22.9523H22.6147C23.7012 20.3191 23.7051 17.3636 22.6257 14.7275C22.6163 14.7044 22.6054 14.6818 22.5933 14.66C22.3714 14.2608 22.0425 13.9314 21.6436 13.7089C21.2447 13.4864 20.7917 13.3797 20.3354 13.4006C19.8792 13.4216 19.4378 13.5695 19.0611 13.8276C18.6843 14.0858 18.387 14.4439 18.2027 14.8618C18.1736 14.9278 18.1561 14.9983 18.151 15.0702L17.9653 17.7067C17.6873 19.2219 16.8698 20.585 15.664 21.5438C15.181 21.7133 14.2968 22.313 11.9901 24.5079V24.4423C11.9897 24.0968 11.8523 23.7654 11.6079 23.5211C11.3635 23.2767 11.0322 23.1393 10.6866 23.139H4.1253C3.77974 23.1393 3.44843 23.2768 3.20408 23.5211C2.95973 23.7655 2.8223 24.0968 2.82195 24.4423V37.5361C2.82219 37.8817 2.95958 38.2131 3.20394 38.4576C3.4483 38.702 3.77967 38.8395 4.1253 38.8398H10.6862C11.0318 38.8395 11.3632 38.7021 11.6075 38.4577C11.8519 38.2134 11.9893 37.8821 11.9897 37.5365V37.4791C13.7939 37.877 14.7355 38.35 15.8339 39.3703C16.2657 39.7811 16.8409 40.0071 17.4369 40H27.6068C28.1003 40.0002 28.5836 39.8598 29.0003 39.5953C29.4169 39.3309 29.7497 38.9532 29.9595 38.5066C30.1694 38.0599 30.2477 37.5627 30.1854 37.0732C30.123 36.5836 29.9225 36.122 29.6073 35.7422C30.419 35.254 30.9964 34.3799 30.9964 33.4513C30.997 32.8735 30.8042 32.3121 30.4487 31.8567C31.2754 31.3671 31.8685 30.4633 31.8685 29.5018C31.8692 28.9598 31.6994 28.4312 31.3833 27.9909C31.8813 27.8062 32.311 27.4735 32.6145 27.0375C32.9181 26.6016 33.0811 26.0832 33.0816 25.552ZM10.7397 37.5363C10.7392 37.5503 10.7334 37.5636 10.7234 37.5735C10.7135 37.5834 10.7002 37.5892 10.6862 37.5897H4.1253C4.11131 37.5892 4.09803 37.5834 4.08813 37.5735C4.07823 37.5636 4.07245 37.5503 4.07195 37.5363V24.4426C4.07247 24.4286 4.07826 24.4153 4.08815 24.4054C4.09805 24.3955 4.11132 24.3897 4.1253 24.3892H10.6862C10.7002 24.3897 10.7135 24.3955 10.7234 24.4054C10.7333 24.4153 10.7391 24.4286 10.7397 24.4426V37.5363ZM30.4819 26.9016H28.3096C28.1438 26.9016 27.9849 26.9674 27.8677 27.0846C27.7505 27.2018 27.6846 27.3608 27.6846 27.5266C27.6846 27.6923 27.7505 27.8513 27.8677 27.9685C27.9849 28.0857 28.1438 28.1516 28.3096 28.1516H29.2688C29.6266 28.1521 29.9696 28.2944 30.2226 28.5474C30.4757 28.8004 30.618 29.1434 30.6185 29.5013C30.6185 30.2044 29.9237 30.9197 29.2105 30.9814C28.948 30.8948 28.6732 30.8508 28.3967 30.851C28.231 30.851 28.072 30.9169 27.9548 31.0341C27.8376 31.1513 27.7717 31.3103 27.7717 31.476C27.7717 31.6418 27.8376 31.8008 27.9548 31.918C28.072 32.0352 28.231 32.101 28.3967 32.101C28.5548 32.1009 28.7116 32.1286 28.86 32.1829C28.8765 32.1902 28.8932 32.1967 28.9104 32.2025C29.1575 32.3046 29.3689 32.4776 29.5177 32.6998C29.6665 32.922 29.746 33.1833 29.7463 33.4507C29.7463 34.1398 29.0238 34.8413 28.2882 34.891C28.0661 34.8307 27.8369 34.8002 27.6067 34.8004C27.441 34.8004 27.282 34.8662 27.1648 34.9835C27.0476 35.1007 26.9817 35.2596 26.9817 35.4254C26.9817 35.5912 27.0476 35.7501 27.1648 35.8673C27.282 35.9845 27.441 36.0504 27.6067 36.0504C27.7376 36.0503 27.8678 36.0693 27.9932 36.1068C28.008 36.1121 28.023 36.117 28.0384 36.1212C28.3417 36.2234 28.5989 36.4302 28.7639 36.7046C28.9289 36.9789 28.991 37.303 28.9392 37.6189C28.8873 37.9348 28.7248 38.222 28.4808 38.4292C28.2367 38.6364 27.9269 38.7501 27.6068 38.75H17.4369C17.2981 38.7531 17.1602 38.7286 17.031 38.6779C16.9019 38.6271 16.7841 38.5512 16.6846 38.4545C15.3573 37.2213 14.197 36.6599 11.9897 36.2006V26.2434L12.1005 26.1355C15.1682 23.1563 15.9197 22.7695 16.0792 22.7226C16.1719 22.7035 16.259 22.6637 16.3341 22.6062C17.8447 21.4491 18.8677 19.7686 19.2017 17.8952C19.2056 17.8733 19.2084 17.8512 19.21 17.829L19.3897 15.2786C19.4912 15.0916 19.6405 14.9348 19.8223 14.8242C20.0041 14.7136 20.212 14.6532 20.4247 14.6491C20.6375 14.6449 20.8476 14.6973 21.0335 14.8007C21.2195 14.9041 21.3747 15.055 21.4834 15.238C22.0054 16.5283 22.2396 17.9169 22.1699 19.307C22.1001 20.6972 21.7281 22.0554 21.0796 23.287C21.0296 23.3822 21.005 23.4888 21.0082 23.5963C21.0114 23.7039 21.0424 23.8088 21.098 23.9009C21.1537 23.9929 21.2322 24.0691 21.3259 24.122C21.4196 24.1748 21.5254 24.2026 21.633 24.2026H30.4819C30.8381 24.2053 31.1787 24.3487 31.4297 24.6015C31.6806 24.8543 31.8214 25.1961 31.8214 25.5523C31.8214 25.9085 31.6806 26.2503 31.4297 26.5031C31.1787 26.7559 30.8381 26.8993 30.4819 26.902V26.9016ZM8.62101 26.4422V26.5176C8.62101 26.6833 8.55516 26.8423 8.43795 26.9595C8.32074 27.0767 8.16177 27.1426 7.99601 27.1426C7.83025 27.1426 7.67128 27.0767 7.55407 26.9595C7.43686 26.8423 7.37101 26.6833 7.37101 26.5176V26.4422C7.37101 26.2764 7.43686 26.1175 7.55407 26.0002C7.67128 25.883 7.83025 25.8172 7.99601 25.8172C8.16177 25.8172 8.32074 25.883 8.43795 26.0002C8.55516 26.1175 8.62101 26.2764 8.62101 26.4422ZM27.3749 5.35797C27.3372 5.24196 27.2664 5.13952 27.1712 5.06326C27.076 4.98701 26.9606 4.94028 26.8391 4.92883L22.3595 4.50696L20.5736 0.376956C20.5252 0.265 20.4451 0.169654 20.3431 0.102672C20.2412 0.0356906 20.1219 0 19.9999 0C19.8779 0 19.7586 0.0356906 19.6567 0.102672C19.5548 0.169654 19.4747 0.265 19.4262 0.376956L17.6405 4.50688L13.161 4.92875C13.0396 4.9402 12.9242 4.98693 12.829 5.06318C12.7338 5.13943 12.6629 5.24186 12.6253 5.35786C12.5876 5.47386 12.5846 5.59836 12.6168 5.716C12.649 5.83364 12.715 5.93929 12.8065 6.01993L16.1825 8.9943L15.1995 13.3849C15.1729 13.504 15.1817 13.6282 15.2248 13.7423C15.2679 13.8564 15.3434 13.9554 15.4421 14.0271C15.5408 14.0987 15.6582 14.14 15.7801 14.1457C15.9019 14.1515 16.0228 14.1214 16.1277 14.0593L19.9999 11.7678L23.8719 14.0595C23.9769 14.1216 24.0978 14.1516 24.2196 14.1459C24.3414 14.1402 24.4589 14.0989 24.5576 14.0272C24.6563 13.9555 24.7318 13.8565 24.7749 13.7424C24.818 13.6283 24.8268 13.5041 24.8001 13.3851L23.8173 8.99446L27.1933 6.02008C27.2849 5.93949 27.3509 5.83386 27.3832 5.7162C27.4154 5.59855 27.4126 5.47402 27.3749 5.35797ZM22.7137 8.30102C22.6297 8.37506 22.5671 8.47032 22.5325 8.57683C22.4979 8.68334 22.4926 8.7972 22.517 8.90649L23.265 12.2475L20.3187 10.5037C20.2223 10.4466 20.1123 10.4165 20.0003 10.4165C19.8883 10.4165 19.7783 10.4466 19.6819 10.5037L16.7356 12.2475L17.4832 8.90625C17.5077 8.79696 17.5023 8.68311 17.4677 8.5766C17.4331 8.47008 17.3705 8.37482 17.2865 8.30079L14.7176 6.0375L18.1262 5.71641C18.2377 5.70589 18.3444 5.66562 18.435 5.59978C18.5256 5.53395 18.5968 5.44499 18.6412 5.34219L19.9999 2.19993L21.3586 5.34243C21.403 5.44522 21.4743 5.53419 21.5649 5.60002C21.6555 5.66585 21.7621 5.70613 21.8736 5.71664L25.2823 6.03774L22.7137 8.30102ZM38.3783 9.02032C38.3406 8.90431 38.2698 8.80186 38.1746 8.7256C38.0794 8.64935 37.9639 8.60262 37.8425 8.59118L34.6857 8.29383L33.427 5.38344C33.3786 5.27148 33.2985 5.17614 33.1966 5.10916C33.0946 5.04218 32.9753 5.00648 32.8534 5.00648C32.7314 5.00648 32.6121 5.04218 32.5101 5.10916C32.4082 5.17614 32.3281 5.27148 32.2797 5.38344L31.0214 8.29383L27.8645 8.59118C27.7431 8.60261 27.6276 8.64933 27.5324 8.72559C27.4372 8.80184 27.3664 8.90429 27.3287 9.02031C27.291 9.13632 27.2881 9.26083 27.3203 9.37849C27.3525 9.49614 27.4185 9.6018 27.51 9.68243L29.8891 11.7784L29.1965 14.8727C29.1698 14.9917 29.1786 15.1159 29.2217 15.2301C29.2649 15.3442 29.3404 15.4432 29.4391 15.5149C29.5379 15.5865 29.6554 15.6278 29.7772 15.6335C29.8991 15.6391 30.02 15.609 30.1249 15.5469L32.8536 13.932L35.582 15.5469C35.687 15.609 35.8079 15.6391 35.9297 15.6334C36.0516 15.6276 36.1691 15.5864 36.2677 15.5147C36.3664 15.443 36.442 15.344 36.4851 15.2299C36.5282 15.1158 36.537 14.9915 36.5103 14.8725L35.8176 11.7783L38.1966 9.68227C38.2881 9.60165 38.354 9.49602 38.3862 9.3784C38.4185 9.26078 38.4156 9.1363 38.3779 9.02032H38.3783ZM34.7142 11.0851C34.6302 11.1591 34.5676 11.2544 34.533 11.3609C34.4984 11.4674 34.493 11.5813 34.5175 11.6906L34.9752 13.7351L33.1718 12.668C33.0754 12.6109 32.9654 12.5808 32.8534 12.5808C32.7414 12.5808 32.6315 12.6109 32.5351 12.668L30.7322 13.7351L31.1898 11.6906C31.2143 11.5813 31.209 11.4674 31.1743 11.3609C31.1397 11.2544 31.0772 11.1591 30.9931 11.0851L29.421 9.70016L31.5069 9.5036C31.6185 9.4931 31.7251 9.45282 31.8157 9.38699C31.9063 9.32116 31.9776 9.23218 32.022 9.12938L32.8534 7.20633L33.6848 9.12938C33.7293 9.23218 33.8005 9.32116 33.8912 9.38699C33.9818 9.45282 34.0884 9.4931 34.1999 9.5036L36.2859 9.70016L34.7142 11.0851ZM12.1361 8.59118L8.97929 8.29383L7.72015 5.38344C7.67174 5.27148 7.59163 5.17614 7.4897 5.10916C7.38776 5.04218 7.26845 5.00648 7.14648 5.00648C7.0245 5.00648 6.90519 5.04218 6.80326 5.10916C6.70132 5.17614 6.62121 5.27148 6.57281 5.38344L5.31452 8.29383L2.15773 8.59118C2.03628 8.60261 1.92083 8.64933 1.82562 8.72559C1.7304 8.80184 1.65958 8.90429 1.62189 9.02031C1.5842 9.13632 1.58128 9.26083 1.6135 9.37849C1.64572 9.49614 1.71166 9.6018 1.8032 9.68243L4.18226 11.7784L3.48952 14.8727C3.46291 14.9917 3.47171 15.1159 3.51483 15.23C3.55794 15.3441 3.6335 15.443 3.73218 15.5147C3.83086 15.5864 3.94835 15.6276 4.07018 15.6333C4.19201 15.6391 4.31285 15.609 4.4178 15.5469L7.14648 13.932L9.87492 15.5469C9.97988 15.609 10.1007 15.639 10.2226 15.6333C10.3444 15.6276 10.4619 15.5863 10.5606 15.5146C10.6592 15.4429 10.7348 15.3439 10.7779 15.2298C10.821 15.1157 10.8298 14.9915 10.8031 14.8725L10.1104 11.7783L12.4895 9.68227C12.5811 9.60164 12.647 9.49599 12.6792 9.37833C12.7114 9.26068 12.7085 9.13617 12.6708 9.02015C12.6331 8.90413 12.5623 8.80168 12.4671 8.72543C12.3719 8.64918 12.2564 8.60245 12.135 8.59102L12.1361 8.59118ZM9.00765 11.0851C8.92362 11.1591 8.86103 11.2544 8.82642 11.3609C8.79182 11.4674 8.78647 11.5813 8.81093 11.6906L9.26859 13.735L7.46484 12.668C7.36844 12.6109 7.25849 12.5808 7.14648 12.5808C7.03446 12.5808 6.92451 12.6109 6.82812 12.668L5.02515 13.7351L5.48288 11.6906C5.50735 11.5813 5.502 11.4674 5.46739 11.3609C5.43278 11.2544 5.37019 11.1591 5.28616 11.0851L3.71413 9.70016L5.80007 9.5036C5.91158 9.4931 6.01822 9.45282 6.10883 9.38699C6.19944 9.32116 6.2707 9.23218 6.31515 9.12938L7.14648 7.20641L7.97788 9.12938C8.02232 9.23217 8.09357 9.32114 8.18417 9.38697C8.27477 9.4528 8.38139 9.49308 8.49288 9.5036L10.5788 9.70016L9.00765 11.0851Z" fill="#333333" fill-opacity="0.5"/>
</g>
<defs>
<clipPath id="clip0_8177_61083">
<rect width="40" height="40" fill="white"/>
</clipPath>
</defs>
</svg>
