<svg width="40" height="40" viewBox="0 0 40 40" fill="none" xmlns="http://www.w3.org/2000/svg">
<path d="M22.8043 21.9829L20.4097 17.6761H21.473L23.394 21.2413L23.126 21.2591L25.0292 17.6761H26.0835L23.671 21.9829V24.1363H22.8043V21.9829Z" fill="#6D6D6D"/>
<path d="M30.3815 18.8288C30.1611 18.7156 29.9199 18.6173 29.6578 18.5339C29.3957 18.4505 29.1395 18.4088 28.8893 18.4088C28.5438 18.4088 28.2669 18.4892 28.0584 18.6501C27.8558 18.8109 27.7546 19.0253 27.7546 19.2934C27.7546 19.4959 27.8201 19.6687 27.9511 19.8116C28.0822 19.9486 28.2549 20.0678 28.4694 20.1691C28.6838 20.2703 28.9072 20.3656 29.1395 20.455C29.3421 20.5324 29.5416 20.6188 29.7382 20.7141C29.9348 20.8094 30.1105 20.9285 30.2654 21.0715C30.4262 21.2145 30.5513 21.3902 30.6406 21.5987C30.736 21.8072 30.7836 22.0663 30.7836 22.3761C30.7836 22.7156 30.6972 23.0253 30.5245 23.3053C30.3577 23.5853 30.1164 23.8057 29.8007 23.9665C29.485 24.1274 29.1097 24.2078 28.6749 24.2078C28.389 24.2078 28.115 24.175 27.8529 24.1095C27.5967 24.044 27.3584 23.9606 27.138 23.8593C26.9176 23.7521 26.7211 23.6419 26.5483 23.5287L26.9325 22.8496C27.0755 22.9509 27.2393 23.0492 27.424 23.1445C27.6086 23.2338 27.8022 23.3083 28.0048 23.3679C28.2073 23.4215 28.4039 23.4483 28.5945 23.4483C28.797 23.4483 28.9966 23.4125 29.1931 23.3411C29.3957 23.2636 29.5625 23.1475 29.6935 22.9926C29.8246 22.8377 29.8901 22.6322 29.8901 22.3761C29.8901 22.1557 29.8305 21.974 29.7114 21.831C29.5982 21.6821 29.4463 21.557 29.2557 21.4557C29.0651 21.3485 28.8625 21.2532 28.6481 21.1698C28.4456 21.0924 28.24 21.009 28.0316 20.9196C27.8231 20.8243 27.6295 20.7111 27.4508 20.5801C27.2721 20.4431 27.1291 20.2763 27.0219 20.0797C26.9147 19.8831 26.861 19.6449 26.861 19.3649C26.861 19.0253 26.9415 18.7305 27.1023 18.4803C27.2691 18.2241 27.4954 18.0246 27.7814 17.8816C28.0673 17.7327 28.3949 17.6523 28.7642 17.6404C29.1812 17.6404 29.5476 17.691 29.8633 17.7923C30.1849 17.8935 30.4679 18.0186 30.7121 18.1676L30.3815 18.8288Z" fill="#6D6D6D"/>
<path d="M33.7865 29.1073H31.3915C31.2257 29.1073 31.0668 29.1732 30.9496 29.2904C30.8324 29.4076 30.7665 29.5666 30.7665 29.7323C30.7665 29.8981 30.8324 30.0571 30.9496 30.1743C31.0668 30.2915 31.2257 30.3573 31.3915 30.3573H32.579C23.3784 42.1286 3.67651 35.1792 3.75026 20.0005C3.74931 17.1946 4.47494 14.4363 5.85651 11.9942C5.89767 11.9228 5.92429 11.8439 5.93483 11.7621C5.94537 11.6803 5.93963 11.5973 5.91793 11.5177C5.89624 11.4382 5.85901 11.3637 5.80841 11.2986C5.75781 11.2335 5.69483 11.1791 5.62309 11.1384C5.55136 11.0978 5.47229 11.0717 5.39044 11.0618C5.30859 11.0518 5.22558 11.0581 5.14619 11.0804C5.0668 11.1027 4.99261 11.1404 4.92787 11.1915C4.86314 11.2426 4.80915 11.3059 4.76901 11.378C3.28078 14.0079 2.49915 16.9786 2.50026 20.0005C2.41588 36.053 22.9328 43.648 33.1615 31.6317C33.1084 32.0692 33.2846 32.5211 33.7865 32.5286C33.9523 32.5286 34.1112 32.4627 34.2285 32.3455C34.3457 32.2283 34.4115 32.0693 34.4115 31.9036C34.4146 31.8555 34.4321 29.5005 34.374 29.5461C34.3324 29.4218 34.2538 29.3133 34.1488 29.2349C34.0439 29.1565 33.9174 29.112 33.7865 29.1073ZM20.0003 2.50045C15.7435 2.42143 11.6161 3.96554 8.45651 6.8192V6.1442C8.45651 5.97844 8.39066 5.81947 8.27345 5.70226C8.15624 5.58505 7.99727 5.5192 7.83151 5.5192C7.66575 5.5192 7.50678 5.58505 7.38957 5.70226C7.27236 5.81947 7.20651 5.97844 7.20651 6.1442V8.31545C7.21176 8.36802 7.22223 8.41995 7.23776 8.47045C7.27194 8.60282 7.34846 8.72038 7.45565 8.80523C7.56284 8.89008 7.69483 8.93757 7.83151 8.94045H10.2265C10.3923 8.94045 10.5512 8.8746 10.6685 8.75739C10.7857 8.64018 10.8515 8.48121 10.8515 8.31545C10.8515 8.14969 10.7857 7.99072 10.6685 7.87351C10.5512 7.7563 10.3923 7.69045 10.2265 7.69045H9.35463C21.8496 -3.04705 40.6734 9.58045 35.3534 25.3386C35.3025 25.4942 35.3148 25.6637 35.3875 25.8104C35.4603 25.9571 35.5877 26.0694 35.7424 26.1232C35.8971 26.1769 36.0668 26.1678 36.2148 26.0977C36.3628 26.0276 36.4775 25.9023 36.534 25.7486C40.5746 14.6817 31.8153 2.29232 20.0003 2.50045Z" fill="#333333" fill-opacity="0.5"/>
<path d="M25.7757 11.2041L18.7346 28.8202H15.8165L22.1615 13.3191L23.0717 13.6939H14.2637V11.2041H25.7757Z" fill="#999999"/>
<path d="M9.2583 24.2876V17.8274H11.0185C11.6559 17.8274 12.198 17.9257 12.6448 18.1222C13.0975 18.3188 13.4608 18.5779 13.7349 18.8996C14.0089 19.2213 14.2084 19.5787 14.3335 19.9718C14.4646 20.359 14.5301 20.7462 14.5301 21.1334C14.5301 21.6219 14.4437 22.0597 14.271 22.4469C14.1042 22.8341 13.8719 23.1647 13.574 23.4387C13.2762 23.7127 12.9337 23.9242 12.5465 24.0731C12.1652 24.2161 11.7602 24.2876 11.3313 24.2876H9.2583ZM10.125 23.4566H11.1615C11.5189 23.4566 11.8465 23.403 12.1444 23.2957C12.4482 23.1885 12.7103 23.0336 12.9307 22.8311C13.157 22.6286 13.3328 22.3814 13.4579 22.0895C13.583 21.7916 13.6455 21.4551 13.6455 21.0798C13.6455 20.6807 13.58 20.3322 13.4489 20.0344C13.3179 19.7306 13.1392 19.4774 12.9128 19.2749C12.6865 19.0724 12.4303 18.9205 12.1444 18.8192C11.8585 18.712 11.5576 18.6584 11.2419 18.6584H10.125V23.4566Z" fill="#6D6D6D"/>
<path d="M14.9935 24.2876L17.8171 17.5593H17.8707L20.6853 24.2876H19.6935L17.5847 18.9175L18.2013 18.5154L15.8424 24.2876H14.9935ZM16.6465 21.8393H19.0501L19.3361 22.5899H16.3964L16.6465 21.8393Z" fill="#6D6D6D"/>
</svg>
