<svg width="40" height="40" viewBox="0 0 40 40" fill="none" xmlns="http://www.w3.org/2000/svg">
<path d="M38.4375 23.8313L35.625 22.225V17.5C35.6235 17.0032 35.4255 16.5271 35.0742 16.1758C34.7229 15.8245 34.2468 15.6265 33.75 15.625H27.5V10C27.5 9.83424 27.4342 9.67527 27.3169 9.55806C27.1997 9.44085 27.0408 9.375 26.875 9.375H1.875C1.70924 9.375 1.55027 9.44085 1.43306 9.55806C1.31585 9.67527 1.25 9.83424 1.25 10V31.25C1.25 31.4158 1.31585 31.5747 1.43306 31.6919C1.55027 31.8092 1.70924 31.875 1.875 31.875H3.8125C3.94235 32.5171 4.2712 33.102 4.75234 33.5466C5.23348 33.9913 5.84246 34.273 6.49282 34.3519C7.14317 34.4308 7.80185 34.3028 8.37532 33.986C8.9488 33.6693 9.40792 33.18 9.6875 32.5875C9.96708 33.18 10.4262 33.6693 10.9997 33.986C11.5732 34.3028 12.2318 34.4308 12.8822 34.3519C13.5325 34.273 14.1415 33.9913 14.6227 33.5466C15.1038 33.102 15.4326 32.5171 15.5625 31.875H30.0625C30.2059 32.5814 30.5892 33.2165 31.1473 33.6727C31.7055 34.1289 32.4042 34.3781 33.125 34.3781C33.8459 34.3781 34.5445 34.1289 35.1027 33.6727C35.6608 33.2165 36.0441 32.5814 36.1875 31.875H38.125C38.2908 31.875 38.4497 31.8092 38.5669 31.6919C38.6842 31.5747 38.75 31.4158 38.75 31.25V24.375C38.7504 24.2649 38.7218 24.1566 38.6669 24.0611C38.612 23.9656 38.5329 23.8863 38.4375 23.8313ZM6.875 33.125C6.50416 33.125 6.14165 33.015 5.83331 32.809C5.52496 32.603 5.28464 32.3101 5.14273 31.9675C5.00081 31.6249 4.96368 31.2479 5.03603 30.8842C5.10838 30.5205 5.28695 30.1864 5.54917 29.9242C5.8114 29.662 6.14549 29.4834 6.50921 29.411C6.87292 29.3387 7.24992 29.3758 7.59253 29.5177C7.93514 29.6596 8.22798 29.9 8.43401 30.2083C8.64003 30.5166 8.75 30.8792 8.75 31.25C8.74852 31.7468 8.5505 32.2229 8.19919 32.5742C7.84788 32.9255 7.37183 33.1235 6.875 33.125ZM12.5 33.125C12.1292 33.125 11.7666 33.015 11.4583 32.809C11.15 32.603 10.9096 32.3101 10.7677 31.9675C10.6258 31.6249 10.5887 31.2479 10.661 30.8842C10.7334 30.5205 10.912 30.1864 11.1742 29.9242C11.4364 29.662 11.7705 29.4834 12.1342 29.411C12.4979 29.3387 12.8749 29.3758 13.2175 29.5177C13.5601 29.6596 13.853 29.9 14.059 30.2083C14.265 30.5166 14.375 30.8792 14.375 31.25C14.3735 31.7468 14.1755 32.2229 13.8242 32.5742C13.4729 32.9255 12.9968 33.1235 12.5 33.125ZM26.25 30.625H15.5625C15.4326 29.9829 15.1038 29.398 14.6227 28.9534C14.1415 28.5087 13.5325 28.227 12.8822 28.1481C12.2318 28.0692 11.5732 28.1972 10.9997 28.514C10.4262 28.8307 9.96708 29.32 9.6875 29.9125C9.40792 29.32 8.9488 28.8307 8.37532 28.514C7.80185 28.1972 7.14317 28.0692 6.49282 28.1481C5.84246 28.227 5.23348 28.5087 4.75234 28.9534C4.2712 29.398 3.94235 29.9829 3.8125 30.625H2.5V26.875H26.25V30.625ZM26.25 25.625H2.5V10.625H26.25V25.625ZM31.875 16.875H33.75C33.9158 16.875 34.0747 16.9408 34.1919 17.0581C34.3092 17.1753 34.375 17.3342 34.375 17.5V21.875H31.875V16.875ZM33.125 33.125C32.7542 33.125 32.3917 33.015 32.0833 32.809C31.775 32.603 31.5346 32.3101 31.3927 31.9675C31.2508 31.6249 31.2137 31.2479 31.286 30.8842C31.3584 30.5205 31.537 30.1864 31.7992 29.9242C32.0614 29.662 32.3955 29.4834 32.7592 29.411C33.1229 29.3387 33.4999 29.3758 33.8425 29.5177C34.1851 29.6596 34.478 29.9 34.684 30.2083C34.89 30.5166 35 30.8792 35 31.25C34.9985 31.7468 34.8005 32.2229 34.4492 32.5742C34.0979 32.9255 33.6218 33.1235 33.125 33.125ZM37.5 27.5H36.25V26.25H37.5V27.5ZM37.5 25H35.625C35.4592 25 35.3003 25.0658 35.1831 25.1831C35.0658 25.3003 35 25.4592 35 25.625V28.125C35 28.2908 35.0658 28.4497 35.1831 28.5669C35.3003 28.6842 35.4592 28.75 35.625 28.75H37.5V30.625H36.1875C36.0441 29.9186 35.6608 29.2835 35.1027 28.8273C34.5445 28.3711 33.8459 28.1219 33.125 28.1219C32.4042 28.1219 31.7055 28.3711 31.1473 28.8273C30.5892 29.2835 30.2059 29.9186 30.0625 30.625H27.5V16.875H30.625V22.5C30.625 22.6658 30.6909 22.8247 30.8081 22.9419C30.9253 23.0592 31.0842 23.125 31.25 23.125H34.6813C34.6829 23.125 34.6845 23.1257 34.6857 23.1268C34.6868 23.128 34.6875 23.1296 34.6875 23.1312L37.5 24.7375V25Z" fill="#333333" fill-opacity="0.5"/>
<path d="M31.25 24.375H33.75V25.625H31.25V24.375ZM1.25 34.375H38.75V35.625H1.25V34.375ZM12.5 6.875H20V8.125H12.5V6.875ZM10 4.375H17.5V5.625H10V4.375ZM7.5 4.375H8.75V5.625H7.5V4.375ZM6.25 30.625H7.5V31.875H6.25V30.625ZM11.875 30.625H13.125V31.875H11.875V30.625ZM32.5 30.625H33.75V31.875H32.5V30.625Z" fill="#333333" fill-opacity="0.5"/>
<path d="M7.6209 19.4681L7.46257 21.7515C7.45701 21.7959 7.45145 21.8292 7.4459 21.8515C7.4459 21.8681 7.4209 21.8765 7.3709 21.8765H6.91257C6.60145 21.8765 6.37923 21.8154 6.2459 21.6931C6.11257 21.5709 6.0459 21.3959 6.0459 21.1681C6.0459 21.057 6.05423 20.8681 6.0709 20.6015C6.08757 20.3292 6.10979 20.0209 6.13757 19.6765C6.16534 19.332 6.19312 18.9681 6.2209 18.5848C6.24868 18.2015 6.27645 17.8404 6.30423 17.5015C6.33201 17.1626 6.35423 16.8654 6.3709 16.6098C6.38757 16.3542 6.3959 16.1792 6.3959 16.0848C6.3959 16.0015 6.44034 15.9598 6.52923 15.9598H9.46257C9.4959 15.9598 9.52645 15.9681 9.55423 15.9848C9.58201 16.0015 9.5959 16.032 9.5959 16.0765L9.56257 16.5681C9.55145 16.7348 9.50423 16.8709 9.4209 16.9765C9.34312 17.0765 9.17923 17.1265 8.92923 17.1265H7.77923L7.6959 18.3015H8.87923C8.91257 18.3015 8.94312 18.3098 8.9709 18.3265C8.99868 18.3431 9.01256 18.3737 9.01256 18.4181L8.97923 18.9098C8.96812 19.0765 8.9209 19.2126 8.83757 19.3181C8.75979 19.4181 8.5959 19.4681 8.3459 19.4681H7.6209Z" fill="#333333" fill-opacity="0.5"/>
<path d="M10.7781 21.8765C10.4615 21.8765 10.2365 21.8154 10.1031 21.6931C9.97535 21.5654 9.91146 21.3792 9.91146 21.1348C9.91146 21.0681 9.91424 20.957 9.91979 20.8015C9.9309 20.6404 9.94479 20.4515 9.96146 20.2348C9.97812 20.0181 9.99479 19.782 10.0115 19.5265C10.0337 19.2654 10.0559 19.0015 10.0781 18.7348C10.1226 18.1737 10.1531 17.7181 10.1698 17.3681C10.192 17.0181 10.2087 16.7431 10.2198 16.5431C10.2365 16.2931 10.2531 16.1348 10.2698 16.0681C10.2865 15.9959 10.3226 15.9598 10.3781 15.9598C10.5503 15.9598 10.7253 15.957 10.9031 15.9515C11.0865 15.9404 11.2615 15.9292 11.4281 15.9181C11.5948 15.907 11.7503 15.8987 11.8948 15.8931C12.0448 15.882 12.1781 15.8765 12.2948 15.8765C12.6503 15.8765 12.9559 15.9209 13.2115 16.0098C13.467 16.0987 13.6726 16.2237 13.8281 16.3848C13.9892 16.5459 14.1059 16.7404 14.1781 16.9681C14.2559 17.1959 14.2948 17.4515 14.2948 17.7348C14.2948 18.1681 14.2087 18.5542 14.0365 18.8931C13.8642 19.232 13.5892 19.4904 13.2115 19.6681L13.9115 20.6681C14.0392 20.857 14.1365 21.0042 14.2031 21.1098C14.2698 21.2098 14.3031 21.2848 14.3031 21.3348C14.3031 21.3737 14.2781 21.4292 14.2281 21.5015C14.1837 21.5681 14.1142 21.6376 14.0198 21.7098C13.9309 21.7765 13.8198 21.8348 13.6865 21.8848C13.5587 21.9348 13.4142 21.9598 13.2531 21.9598C13.0753 21.9598 12.9198 21.9015 12.7865 21.7848C12.6587 21.6681 12.542 21.5154 12.4365 21.3265C12.3365 21.132 12.2476 20.9098 12.1698 20.6598C12.0976 20.4098 12.0281 20.1487 11.9615 19.8765C11.7615 19.8654 11.5976 19.8459 11.4698 19.8181C11.4531 20.0626 11.4365 20.2959 11.4198 20.5181C11.4031 20.7404 11.3892 20.9404 11.3781 21.1181C11.367 21.2904 11.3559 21.4348 11.3448 21.5515C11.3337 21.6626 11.3281 21.7292 11.3281 21.7515C11.3226 21.7959 11.3115 21.8292 11.2948 21.8515C11.2781 21.8681 11.2448 21.8765 11.1948 21.8765H10.7781ZM12.1281 17.1265C12.0615 17.1265 11.9865 17.132 11.9031 17.1431C11.8198 17.1487 11.7309 17.157 11.6365 17.1681C11.6253 17.3626 11.6115 17.5959 11.5948 17.8681C11.5837 18.1348 11.567 18.4209 11.5448 18.7265C11.7392 18.7709 11.9087 18.7931 12.0531 18.7931C12.2253 18.7931 12.3642 18.7598 12.4698 18.6931C12.5809 18.6265 12.667 18.5459 12.7281 18.4515C12.7892 18.3515 12.8281 18.2459 12.8448 18.1348C12.867 18.0237 12.8781 17.9237 12.8781 17.8348C12.8781 17.607 12.8226 17.432 12.7115 17.3098C12.6003 17.1876 12.4059 17.1265 12.1281 17.1265Z" fill="#333333" fill-opacity="0.5"/>
<path d="M15.9214 21.8765C15.6102 21.8765 15.388 21.8154 15.2547 21.6931C15.1214 21.5709 15.0547 21.3959 15.0547 21.1681C15.0547 21.057 15.063 20.8681 15.0797 20.6015C15.0964 20.3292 15.1186 20.0209 15.1464 19.6765C15.1741 19.332 15.2019 18.9681 15.2297 18.5848C15.2575 18.2015 15.2852 17.8404 15.313 17.5015C15.3408 17.1626 15.363 16.8654 15.3797 16.6098C15.3964 16.3542 15.4047 16.1792 15.4047 16.0848C15.4047 16.0015 15.4491 15.9598 15.538 15.9598H18.4714C18.5047 15.9598 18.5352 15.9681 18.563 15.9848C18.5908 16.0015 18.6047 16.032 18.6047 16.0765L18.5714 16.5681C18.5602 16.7348 18.513 16.8709 18.4297 16.9765C18.3519 17.0765 18.188 17.1265 17.938 17.1265H16.788L16.7047 18.3015H17.888C17.9214 18.3015 17.9519 18.3098 17.9797 18.3265C18.0075 18.3431 18.0214 18.3737 18.0214 18.4181L17.988 18.9098C17.9769 19.0765 17.9297 19.2126 17.8464 19.3181C17.7686 19.4181 17.6047 19.4681 17.3547 19.4681H16.6297L16.538 20.7098H18.3714C18.4047 20.7098 18.4352 20.7209 18.463 20.7431C18.4908 20.7598 18.5047 20.7876 18.5047 20.8265L18.4714 21.3181C18.4602 21.4848 18.413 21.6209 18.3297 21.7265C18.2519 21.8265 18.088 21.8765 17.838 21.8765H15.9214Z" fill="#333333" fill-opacity="0.5"/>
<path d="M20.0962 21.8765C19.785 21.8765 19.5628 21.8154 19.4295 21.6931C19.2962 21.5709 19.2295 21.3959 19.2295 21.1681C19.2295 21.057 19.2378 20.8681 19.2545 20.6015C19.2712 20.3292 19.2934 20.0209 19.3212 19.6765C19.3489 19.332 19.3767 18.9681 19.4045 18.5848C19.4323 18.2015 19.46 17.8404 19.4878 17.5015C19.5156 17.1626 19.5378 16.8654 19.5545 16.6098C19.5712 16.3542 19.5795 16.1792 19.5795 16.0848C19.5795 16.0015 19.6239 15.9598 19.7128 15.9598H22.6462C22.6795 15.9598 22.71 15.9681 22.7378 15.9848C22.7656 16.0015 22.7795 16.032 22.7795 16.0765L22.7462 16.5681C22.735 16.7348 22.6878 16.8709 22.6045 16.9765C22.5267 17.0765 22.3628 17.1265 22.1128 17.1265H20.9628L20.8795 18.3015H22.0628C22.0962 18.3015 22.1267 18.3098 22.1545 18.3265C22.1823 18.3431 22.1962 18.3737 22.1962 18.4181L22.1628 18.9098C22.1517 19.0765 22.1045 19.2126 22.0212 19.3181C21.9434 19.4181 21.7795 19.4681 21.5295 19.4681H20.8045L20.7128 20.7098H22.5462C22.5795 20.7098 22.61 20.7209 22.6378 20.7431C22.6656 20.7598 22.6795 20.7876 22.6795 20.8265L22.6462 21.3181C22.635 21.4848 22.5878 21.6209 22.5045 21.7265C22.4267 21.8265 22.2628 21.8765 22.0128 21.8765H20.0962Z" fill="#333333" fill-opacity="0.5"/>
</svg>
