<svg width="44" height="44" viewBox="0 0 44 44" fill="none" xmlns="http://www.w3.org/2000/svg">
<path d="M44 22C44 9.86941 34.1306 -4.31405e-07 22 -9.61651e-07C9.86941 -1.4919e-06 -1.38508e-06 9.8694 -1.91532e-06 22C-2.44557e-06 34.1306 9.8694 44 22 44C34.1306 44 44 34.1306 44 22ZM5.5 22C5.5 12.9022 12.9022 5.5 22 5.5C25.4724 5.5 28.755 6.55273 31.5561 8.55439L8.55439 31.5561C6.55273 28.755 5.5 25.4724 5.5 22ZM12.4439 35.4456L35.4456 12.4439C37.4473 15.245 38.5 18.5276 38.5 22C38.5 31.0978 31.0978 38.5 22 38.5C18.5276 38.5 15.245 37.4473 12.4439 35.4456Z" fill="white"/>
</svg>
