<svg width="441" height="126" viewBox="0 0 441 126" fill="none" xmlns="http://www.w3.org/2000/svg">
<path d="M62.5201 119.544C94.0158 119.544 119.548 94.0121 119.548 62.5165C119.548 31.0208 94.0158 5.48853 62.5201 5.48853C31.0245 5.48853 5.49219 31.0208 5.49219 62.5165C5.49219 94.0121 31.0245 119.544 62.5201 119.544Z" fill="#B12029"/>
<path d="M61.3863 108.15C62.1731 108.15 62.9377 108.15 63.6962 108.15C63.902 108.88 63.8374 108.973 63.1293 108.975C62.7521 108.977 62.3769 108.975 61.9996 108.975C61.2471 108.973 61.2411 108.965 61.3863 108.15Z" fill="white"/>
<path d="M108.938 64.8949C108.097 64.9615 108.105 64.9615 108.121 64.213C108.133 63.6219 108.123 63.0308 108.123 62.4075C108.452 62.4075 108.68 62.4075 108.936 62.4075C108.938 63.2225 108.938 64.0436 108.938 64.8949Z" fill="white"/>
<path d="M58.9002 17.012C58.8801 16.7255 58.8639 16.4834 58.8438 16.1909C59.6648 16.1445 60.4415 16.1001 61.2687 16.0537C61.2868 16.3442 61.303 16.5863 61.3211 16.8748C60.5081 16.9232 59.7455 16.9656 58.9002 17.012Z" fill="white"/>
<path d="M65.999 16.905C65.2586 16.905 64.5868 16.899 63.915 16.907C63.5216 16.9131 63.6225 16.6347 63.6043 16.4148C63.5821 16.1525 63.6931 16.0436 63.9614 16.0618C64.5565 16.1021 65.1557 16.094 65.7448 16.1667C66.3561 16.2433 65.9546 16.673 65.999 16.905Z" fill="white"/>
<path d="M42.8025 20.4255C42.9296 20.6959 43.0285 20.9037 43.1516 21.1659C42.4435 21.527 41.7535 21.8781 41.0172 22.2533C40.8901 22.0334 40.767 21.8236 40.6016 21.5391C41.3359 21.1659 42.0501 20.8048 42.8025 20.4255Z" fill="white"/>
<path d="M19.9375 81.1312C20.2159 81.0041 20.4257 80.9093 20.686 80.7903C21.0289 81.5125 21.3598 82.2126 21.7128 82.959C21.4727 83.0821 21.2468 83.2011 20.9765 83.3403C20.6254 82.5938 20.2926 81.8898 19.9375 81.1312Z" fill="white"/>
<path d="M93.542 95.9893C93.7356 96.195 93.9011 96.3746 94.1109 96.5965C93.4915 97.1412 92.8984 97.6637 92.275 98.2124C92.0894 97.9986 91.928 97.815 91.7344 97.5911C92.3295 97.0625 92.9085 96.5501 93.542 95.9893Z" fill="white"/>
<path d="M96.8221 92.6223C97.036 92.8079 97.2115 92.9612 97.4435 93.161C96.8927 93.7601 96.3581 94.3411 95.7892 94.9625C95.5754 94.7688 95.3857 94.5974 95.1719 94.4057C95.7307 93.8005 96.2613 93.2296 96.8221 92.6223Z" fill="white"/>
<path d="M29.2152 94.9061C28.7149 94.3654 28.1823 93.7945 27.6094 93.1751C27.8172 92.9915 27.9967 92.8302 28.2247 92.6284C28.7734 93.2155 29.304 93.7844 29.8547 94.3755C29.655 94.5389 29.4674 94.6963 29.2152 94.9061Z" fill="white"/>
<path d="M18.25 76.6606C18.5304 76.5698 18.7483 76.4992 19.0287 76.4084C19.295 77.1589 19.5553 77.8872 19.8337 78.672C19.5835 78.7708 19.3495 78.8636 19.061 78.9766C18.7886 78.1979 18.5324 77.4635 18.25 76.6606Z" fill="white"/>
<path d="M106.013 78.9301C105.72 78.8191 105.504 78.7364 105.242 78.6356C105.504 77.877 105.761 77.1427 106.033 76.3579C106.283 76.4366 106.513 76.5092 106.818 76.604C106.549 77.3807 106.291 78.1272 106.013 78.9301Z" fill="white"/>
<path d="M18.3553 50.9749C18.0588 50.8881 17.8389 50.8236 17.5625 50.7409C17.7864 49.9621 18.0023 49.2157 18.2323 48.4148C18.4945 48.4894 18.7265 48.554 19.0211 48.6347C18.7992 49.4235 18.5833 50.18 18.3553 50.9749Z" fill="white"/>
<path d="M93.4766 28.9348C93.644 28.7553 93.8094 28.5737 94.0152 28.3518C94.5801 28.957 95.1228 29.538 95.6957 30.1554C95.5747 30.2683 95.3971 30.4378 95.2035 30.6194C94.6608 30.0242 94.1342 29.4452 93.6057 28.8662C93.5633 28.8884 93.5189 28.9106 93.4766 28.9348Z" fill="white"/>
<path d="M22.0741 39.627C22.3424 39.7803 22.5542 39.8993 22.7923 40.0345C22.4049 40.7607 22.0378 41.4487 21.6544 42.1648C21.4003 42.0418 21.1804 41.9349 20.9141 41.8057C21.3095 41.0654 21.6807 40.3653 22.0741 39.627Z" fill="white"/>
<path d="M26.0391 33.7301C26.5777 33.0846 27.078 32.4854 27.6106 31.8479C27.8184 32.0214 28.006 32.1747 28.2421 32.3724C27.7357 32.9857 27.2414 33.5829 26.6967 34.2446C26.493 34.0832 26.2973 33.9299 26.0391 33.7301Z" fill="white"/>
<path d="M30.9453 96.6006C31.1592 96.3706 31.3205 96.1991 31.5102 95.9954C32.1094 96.5199 32.6964 97.0343 33.3238 97.5831C33.1564 97.7868 33.001 97.9744 32.7973 98.2206C32.1779 97.6799 31.5828 97.1574 30.9453 96.6006Z" fill="white"/>
<path d="M45.2464 20.2581C45.1334 19.9877 45.0406 19.7618 44.9297 19.4935C45.7024 19.2009 46.4306 18.9225 47.2094 18.626C47.3102 18.8842 47.399 19.1102 47.5099 19.3906C46.7534 19.6811 46.0292 19.9575 45.2464 20.2581Z" fill="white"/>
<path d="M75.5135 107.141C75.4227 106.847 75.3562 106.627 75.2734 106.353C76.034 106.107 76.7724 105.866 77.5571 105.612C77.6499 105.854 77.7367 106.078 77.8517 106.383C77.0629 106.639 76.3144 106.883 75.5135 107.141Z" fill="white"/>
<path d="M80.0236 105.57C79.9107 105.296 79.8179 105.072 79.7109 104.807C80.4513 104.481 81.1615 104.17 81.9059 103.841C82.0249 104.081 82.1318 104.301 82.271 104.581C81.5145 104.914 80.7943 105.231 80.0236 105.57Z" fill="white"/>
<path d="M98.9442 91.3875C98.7041 91.1919 98.5246 91.0446 98.3047 90.865C98.7848 90.2235 99.2529 89.5981 99.7451 88.9404C99.963 89.0897 100.165 89.2289 100.427 89.4085C99.9348 90.0661 99.4587 90.6996 98.9442 91.3875Z" fill="white"/>
<path d="M105.135 81.0827C104.778 81.8453 104.447 82.5514 104.088 83.316C103.838 83.1909 103.62 83.084 103.352 82.9508C103.688 82.2286 104.015 81.5265 104.366 80.77C104.61 80.8709 104.834 80.9617 105.135 81.0827Z" fill="white"/>
<path d="M107.471 74.3668C107.166 74.2902 106.942 74.2337 106.672 74.1651C106.853 73.3843 107.029 72.6298 107.215 71.8269C107.469 71.8733 107.705 71.9157 108.022 71.9742C107.838 72.7731 107.66 73.5397 107.471 74.3668Z" fill="white"/>
<path d="M89.9415 99.0032C90.109 99.2231 90.2562 99.4188 90.4418 99.6629C89.7721 100.141 89.1366 100.595 88.4527 101.083C88.2933 100.855 88.146 100.645 87.9766 100.405C88.6423 99.9312 89.2758 99.4773 89.9415 99.0032Z" fill="white"/>
<path d="M24.039 87.0502C23.803 87.2015 23.5972 87.3346 23.3451 87.496C22.9174 86.7899 22.5078 86.1101 22.0781 85.3979C22.3384 85.2527 22.5522 85.1316 22.7983 84.9924C23.2159 85.6864 23.6174 86.3501 24.039 87.0502Z" fill="white"/>
<path d="M89.8438 25.9449C90.0193 25.7129 90.1665 25.5172 90.3441 25.2832C91.0017 25.8037 91.6231 26.2939 92.2707 26.8043C92.0851 27.0323 91.9297 27.2219 91.7482 27.4418C91.1107 26.9415 90.5014 26.4614 89.8438 25.9449Z" fill="white"/>
<path d="M19.928 43.906C20.1983 44.0271 20.4203 44.1299 20.6825 44.2469C20.3799 44.9914 20.0854 45.7116 19.7767 46.4681C19.5165 46.3753 19.2865 46.2946 19 46.1937C19.3127 45.4211 19.6113 44.6867 19.928 43.906Z" fill="white"/>
<path d="M49.6808 18.7007C49.6102 18.4909 49.5234 18.3456 49.5234 18.1984C49.5234 18.0834 49.6062 17.8897 49.6909 17.8635C50.3748 17.6577 51.0688 17.4822 51.7849 17.2905C51.8374 17.4539 51.8677 17.5709 51.91 17.6839C52.025 17.9805 51.9625 18.1257 51.6155 18.1984C50.978 18.3295 50.3546 18.5211 49.6808 18.7007Z" fill="white"/>
<path d="M41.1236 102.828C40.9844 103.086 40.8754 103.29 40.7322 103.555C40.012 103.147 39.314 102.754 38.5938 102.346C38.7471 102.086 38.8721 101.876 39.0134 101.636C39.7275 102.039 40.4034 102.421 41.1236 102.828Z" fill="white"/>
<path d="M18.391 74.1974C18.1348 74.272 17.9007 74.3386 17.6002 74.4233C17.4085 73.6163 17.2249 72.8497 17.0312 72.0367C17.3157 71.9762 17.5517 71.9258 17.8362 71.8652C18.0238 72.652 18.2013 73.4045 18.391 74.1974Z" fill="white"/>
<path d="M86.057 101.626C86.2043 101.88 86.3294 102.094 86.4726 102.34C85.7605 102.745 85.0786 103.131 84.3463 103.548C84.2111 103.288 84.0921 103.062 83.9609 102.814C84.663 102.417 85.3307 102.037 86.057 101.626Z" fill="white"/>
<path d="M16.3047 67.312C16.6174 67.2777 16.8474 67.2515 17.1197 67.2212C17.2186 67.9737 17.3194 68.6858 17.3921 69.4C17.4001 69.4807 17.2589 69.6219 17.1581 69.6562C17.0047 69.7107 16.8272 69.6986 16.6154 69.7187C16.5105 68.9017 16.4116 68.131 16.3047 67.312Z" fill="white"/>
<path d="M16.5938 55.4457C16.7451 54.6105 16.8822 53.8479 17.0315 53.0288C17.318 53.0873 17.554 53.1357 17.8345 53.1922C17.6912 53.9851 17.556 54.7456 17.4088 55.5566C17.1405 55.5203 16.9024 55.488 16.5938 55.4457Z" fill="white"/>
<path d="M68.4378 107.769C68.4721 108.043 68.5023 108.283 68.5427 108.588C67.7882 108.663 67.078 108.786 66.3699 108.786C65.8797 108.786 66.1339 108.332 66.0391 108.021C66.8339 107.938 67.5904 107.86 68.4378 107.769Z" fill="white"/>
<path d="M45.0738 105.586C44.2991 105.249 43.5869 104.936 42.8203 104.602C42.9393 104.339 43.0402 104.117 43.1592 103.851C43.8996 104.172 44.6118 104.483 45.3764 104.813C45.2815 105.059 45.1948 105.283 45.0738 105.586Z" fill="white"/>
<path d="M54.3837 107.426C54.3453 107.692 54.309 107.932 54.2646 108.239C53.4415 108.07 52.6648 107.912 51.8438 107.743C51.9184 107.45 51.9789 107.214 52.0495 106.944C52.8343 107.107 53.5828 107.261 54.3837 107.426Z" fill="white"/>
<path d="M49.8277 106.361C49.741 106.639 49.6704 106.861 49.5816 107.147C48.8069 106.901 48.0585 106.665 47.2656 106.413C47.3544 106.137 47.427 105.907 47.5158 105.63C48.2945 105.876 49.0309 106.108 49.8277 106.361Z" fill="white"/>
<path d="M56.5703 108.592C56.6026 108.302 56.6308 108.061 56.6611 107.779C57.4721 107.862 58.2427 107.94 59.0638 108.023C59.0376 108.302 59.0154 108.542 58.9872 108.842C58.1661 108.757 57.3934 108.677 56.5703 108.592Z" fill="white"/>
<path d="M108.444 55.2862C108.139 55.3387 107.924 55.377 107.639 55.4254C107.492 54.6427 107.349 53.8801 107.195 53.061C107.466 53.0025 107.712 52.9501 108.004 52.8855C108.156 53.7147 108.297 54.4792 108.444 55.2862Z" fill="white"/>
<path d="M77.4297 19.3583C77.5225 19.0819 77.5971 18.864 77.694 18.5796C78.4606 18.864 79.1989 19.1404 79.9958 19.435C79.8909 19.6992 79.8021 19.9232 79.6912 20.1996C78.9387 19.9191 78.2124 19.6488 77.4297 19.3583Z" fill="white"/>
<path d="M75.2497 18.6641C74.4427 18.4523 73.7084 18.2607 72.9297 18.0569C72.966 17.8592 72.9721 17.6696 73.0427 17.5082C73.083 17.4174 73.2464 17.3004 73.3251 17.3185C74.0211 17.4799 74.711 17.6716 75.4535 17.8652C75.3828 18.1436 75.3223 18.3777 75.2497 18.6641Z" fill="white"/>
<path d="M107.461 50.618C107.159 50.6886 106.922 50.7451 106.658 50.8076C106.432 50.039 106.216 49.3087 105.984 48.5219C106.228 48.4352 106.454 48.3565 106.761 48.2476C106.999 49.0444 107.223 49.809 107.461 50.618Z" fill="white"/>
<path d="M37.0862 100.405C36.9208 100.656 36.7917 100.849 36.6303 101.093C35.9525 100.613 35.3049 100.155 34.625 99.6731C34.7945 99.4411 34.9397 99.2434 35.1132 99.0054C35.7769 99.4774 36.4104 99.9273 37.0862 100.405Z" fill="white"/>
<path d="M32.6953 26.8812C33.349 26.3628 33.9683 25.8705 34.6199 25.3521C34.7974 25.5881 34.9447 25.7838 35.1162 26.0097C34.4908 26.51 33.8937 26.9861 33.2481 27.5006C33.0706 27.3029 32.9011 27.1132 32.6953 26.8812Z" fill="white"/>
<path d="M104.305 44.1219C104.563 44.009 104.775 43.9162 105.065 43.7891C105.376 44.5436 105.675 45.2698 105.995 46.0486C105.739 46.1514 105.527 46.2362 105.237 46.3532C104.934 45.6249 104.632 44.9027 104.305 44.1219Z" fill="white"/>
<path d="M101.724 37.533C101.474 37.6944 101.28 37.8195 101.03 37.9788C100.576 37.3151 100.132 36.6655 99.6641 35.9796C99.888 35.8202 100.088 35.679 100.336 35.5015C100.796 36.1712 101.242 36.8249 101.724 37.533Z" fill="white"/>
<path d="M24.6453 35.5901C24.8954 35.7656 25.0972 35.9068 25.3231 36.0642C24.8712 36.736 24.4375 37.3815 23.9735 38.0715C23.7435 37.9262 23.5377 37.7991 23.2734 37.6317C23.7374 36.9438 24.1853 36.276 24.6453 35.5901Z" fill="white"/>
<path d="M101.023 87.0382C101.455 86.324 101.857 85.6583 102.274 84.9663C102.514 85.1075 102.724 85.2326 102.982 85.3839C102.557 86.092 102.151 86.7678 101.723 87.482C101.477 87.3287 101.272 87.1976 101.023 87.0382Z" fill="white"/>
<path d="M29.7473 30.6777C29.5899 30.5022 29.4285 30.3186 29.2812 30.1532C29.8159 29.5823 30.3485 29.0114 30.9537 28.3638C31.1332 28.6159 31.2744 28.8177 31.4217 29.0255C30.9012 29.5419 30.3384 30.0967 29.7473 30.6777Z" fill="white"/>
<path d="M97.3734 31.7654C97.9019 32.3928 98.4043 32.9879 98.9449 33.6274C98.7311 33.809 98.5475 33.9664 98.3135 34.1641C97.791 33.5427 97.2826 32.9395 96.75 32.304C96.9618 32.1225 97.1454 31.9631 97.3734 31.7654Z" fill="white"/>
<path d="M84.3434 21.4704C84.2021 21.7307 84.0851 21.9445 83.95 22.1947C83.2176 21.8316 82.5216 21.4846 81.7812 21.1174C81.9023 20.8672 82.0112 20.6473 82.1444 20.375C82.8828 20.7422 83.5909 21.0952 84.3434 21.4704Z" fill="white"/>
<path d="M24.6328 89.4226C24.885 89.245 25.0746 89.1139 25.3086 88.9485C25.7948 89.588 26.2629 90.2053 26.7612 90.865C26.5574 91.0325 26.3698 91.1858 26.1196 91.3916C25.6254 90.7359 25.1493 90.1085 24.6328 89.4226Z" fill="white"/>
<path d="M54.2428 17.6172C54.1903 17.3186 54.15 17.0927 54.1016 16.8102C54.9105 16.6811 55.6792 16.5601 56.5043 16.429C56.5487 16.7094 56.585 16.9474 56.6314 17.244C55.8244 17.3691 55.0598 17.4881 54.2428 17.6172Z" fill="white"/>
<path d="M85.9453 23.3265C86.0966 23.0764 86.2157 22.8766 86.371 22.6184C87.071 23.0602 87.7388 23.4839 88.4469 23.9317C88.2835 24.1779 88.1483 24.3816 87.9889 24.6197C87.303 24.1859 86.6454 23.7683 85.9453 23.3265Z" fill="white"/>
<path d="M16.1094 60.1966C16.178 59.3554 16.2405 58.5787 16.3071 57.7495C16.5915 57.7878 16.8296 57.8181 17.112 57.8544C17.0555 58.6473 17.0011 59.4078 16.9446 60.1966C16.6722 60.1966 16.4322 60.1966 16.1094 60.1966Z" fill="white"/>
<path d="M38.5855 22.6729C38.7449 22.9391 38.8639 23.1389 39.0091 23.381C38.3313 23.8167 37.6777 24.2363 36.9837 24.6842C36.8303 24.4603 36.6932 24.2585 36.5156 24.0003C37.2076 23.5565 37.8774 23.1288 38.5855 22.6729Z" fill="white"/>
<path d="M73.0673 106.932C73.1338 107.234 73.1802 107.444 73.2428 107.726C72.4479 107.894 71.6773 108.055 70.8501 108.231C70.7997 107.934 70.7573 107.694 70.7109 107.418C71.5098 107.252 72.2704 107.097 73.0673 106.932Z" fill="white"/>
<path d="M68.2734 17.2278C68.3198 16.9312 68.3541 16.7033 68.3985 16.4148C69.153 16.5298 69.8793 16.6327 70.6015 16.7618C70.6721 16.7739 70.7629 16.9393 70.7629 17.0341C70.7629 17.2016 70.7024 17.369 70.656 17.5889C69.8732 17.4699 69.1066 17.3529 68.2734 17.2278Z" fill="white"/>
<path d="M107.939 67.189C108.21 67.2051 108.44 67.2212 108.754 67.2394C108.655 68.0181 108.571 68.7585 108.46 69.4949C108.45 69.5614 108.278 69.6462 108.183 69.6462C108.016 69.6462 107.85 69.5856 107.641 69.5392C107.737 68.7706 107.834 68.0141 107.939 67.189Z" fill="white"/>
<path d="M103.343 42.054C102.951 41.3197 102.592 40.6458 102.211 39.9337C102.443 39.8006 102.653 39.6795 102.921 39.5242C103.314 40.2525 103.69 40.9464 104.087 41.6828C103.823 41.8139 103.605 41.9229 103.343 42.054Z" fill="white"/>
<path d="M108.922 60.0332C108.614 60.0574 108.398 60.0755 108.127 60.0977C108.059 59.3553 107.926 58.629 107.948 57.9068C107.962 57.4428 108.426 57.7212 108.745 57.6324C108.805 58.4455 108.862 59.2181 108.922 60.0332Z" fill="white"/>
<path d="M16.1172 64.9515C16.1172 64.1506 16.1172 63.388 16.1172 62.5811C16.333 62.5811 16.5731 62.5811 16.9524 62.5811C16.9524 63.3033 16.9584 64.0336 16.9423 64.7639C16.9403 64.8284 16.8092 64.9273 16.7264 64.9414C16.559 64.9717 16.3855 64.9515 16.1172 64.9515Z" fill="white"/>
<path d="M60.3391 42.6006C59.2497 42.0216 58.0877 41.6424 56.8631 41.5314C55.344 41.3942 53.8128 41.3801 52.2957 41.2288C50.5991 41.0593 48.9388 40.6982 47.4298 39.8449C47.2623 39.75 47.111 39.6229 46.9698 39.4757C48.382 39.7944 49.7922 39.972 51.2326 39.9074C52.3442 39.857 53.4134 39.6411 54.4483 39.2336C56.6876 38.352 59.0157 37.8819 61.4184 38.0252C64.6927 38.2229 67.8519 38.9148 70.5815 40.8637C71.4389 41.4749 72.1571 42.2819 72.8894 42.9537C72.7542 41.6686 72.2055 40.4703 71.1322 39.5201C70.0953 38.6042 68.8909 37.9727 67.6341 37.3493C67.9347 37.3493 68.2352 37.3392 68.5338 37.3514C70.3031 37.428 72.032 37.7185 73.7105 38.3076C75.7642 39.0278 77.2329 40.4541 78.4837 42.1588C80.7492 45.2475 81.9798 48.7134 82.2562 52.5263C82.4277 54.8745 82.2441 57.1824 81.3907 59.3975C81.1547 60.0108 80.7936 60.5737 80.5031 61.1648C79.9705 62.2481 79.5388 63.3496 79.7667 64.6044C80.0128 65.9622 81.4734 67.0052 82.9421 65.7826C84.0134 64.8909 84.5258 63.6926 84.8526 62.3893C85.2742 60.7068 85.3267 58.988 85.2258 57.2732C85.01 53.6237 84.2998 50.0691 82.9643 46.6576C82.5568 45.6207 81.9919 44.6443 81.5905 43.6053C80.6019 41.0432 80.4789 38.4952 82.0464 36.0965C83.3577 34.0912 85.2803 32.8949 87.5821 32.3502C90.4852 31.6623 92.9666 32.5943 95.0788 34.5694C95.9241 35.3602 96.6484 36.2862 97.3948 37.1779C98.0363 37.9445 98.2199 38.8543 97.9133 39.7985C97.1809 42.0479 98.0061 43.8938 99.3497 45.6167C99.6583 46.0141 100.017 46.3712 100.344 46.7545C100.461 46.8917 100.546 47.0551 100.592 47.3234C100.374 47.2911 100.149 47.285 99.9387 47.2245C98.7727 46.8937 97.8951 46.1311 97.1063 45.2596C96.4728 44.5595 95.8777 43.8232 95.2563 43.111C94.7964 42.5845 94.2759 42.1447 93.6021 41.8945C92.6579 41.5455 92.0164 40.8374 91.512 39.9921C90.8987 38.9653 89.9849 38.3439 88.8551 38.007C86.634 37.3433 84.9373 38.5295 84.8001 40.8515C84.6932 42.6591 85.3045 44.2569 86.287 45.7296C88.2317 48.6488 89.8779 51.7193 91.0097 55.048C91.9317 57.7594 92.4986 60.5353 92.5793 63.4081C92.7104 68.0381 91.6775 72.3432 89.0327 76.1884C86.9144 79.2669 84.1283 81.48 80.4728 82.4968C78.9941 82.9083 77.5335 82.7369 76.091 82.3576C72.958 81.5325 70.2264 80.0073 68.0839 77.54C65.4048 74.4534 65.2293 70.808 67.6341 67.4994C69.1229 65.4477 70.7288 63.4828 72.2297 61.4391C73.6298 59.5327 74.8745 57.5254 75.6855 55.2861C77.128 51.3037 76.2363 48.0496 72.9257 45.3947C70.0691 43.105 66.811 41.7493 63.1595 41.364C63.0384 41.3519 62.9133 41.362 62.6874 41.362C62.9033 41.4911 63.0425 41.5778 63.1837 41.6585C65.0397 42.7076 66.8231 43.8575 68.2917 45.4311C68.8748 46.0564 69.3811 46.7403 69.599 47.5897C69.6515 47.7954 69.6636 48.0113 69.714 48.3523C69.4154 48.0698 69.2177 47.8761 69.0119 47.6905C66.5386 45.4472 63.6315 44.2166 60.3008 44.0733C56.3588 43.9039 52.7295 44.9025 49.5016 47.2165C48.5938 47.8681 47.8191 48.6649 47.2179 49.6494C50.3005 46.819 54.0368 46.0827 58.0373 46.2481C59.2921 46.3006 60.4622 46.7182 61.5334 47.4666C61.364 47.4565 61.1945 47.4464 61.023 47.4343C58.3701 47.2487 55.7697 47.4485 53.2903 48.5076C50.6516 49.6353 48.618 51.4691 47.3793 54.0353C45.7311 57.4507 42.9733 59.4399 39.5054 60.6322C37.6676 61.2636 35.7773 61.6167 33.8345 61.6994C36.8021 62.0343 39.7394 61.9717 42.5941 60.9832C44.8616 60.1984 46.7075 58.8004 48.154 56.9101C49.2273 55.506 50.2602 54.0817 51.6764 52.9882C53.7503 51.3844 56.0844 50.5331 58.7111 50.5129C58.8362 50.5109 58.9612 50.525 59.0863 50.5432C59.1287 50.5492 59.165 50.5855 59.2154 50.6158C55.5075 51.5155 53.1895 54.1039 51.2447 57.1239C50.1371 58.8427 49.1405 60.6342 48.0168 62.3429C46.4917 64.663 44.3936 66.2083 41.6176 66.7308C39.6789 67.0959 37.7341 67.0213 35.7712 66.8377C36.1142 66.9346 36.4551 67.0374 36.8001 67.1222C37.1511 67.2089 37.5042 67.2856 37.8592 67.3522C40.0965 67.7698 42.3318 67.8121 44.557 67.2694C47.5952 66.527 49.9293 64.8022 51.6199 62.1876C52.4914 60.84 53.3266 59.4681 54.2224 58.1367C55.8423 55.7279 58.0232 54.1079 60.8959 53.4643C63.7203 52.8309 66.9381 53.8598 68.9857 55.5967C67.0288 55.8832 65.7337 56.8233 65.7982 58.9275C65.8567 60.8319 66.9925 61.8083 68.8627 62.0323C68.8405 62.0887 68.8163 62.1452 68.7941 62.2017C67.8822 62.0746 66.9542 62.0202 66.0625 61.8063C63.3733 61.1648 62.8165 58.3283 63.4681 56.6639C63.5246 56.5207 63.571 56.3755 63.6457 56.1616C62.7661 56.5611 62.1165 57.1098 61.7493 57.9248C61.2974 58.9275 61.0694 59.9927 61.1703 61.0962C61.3196 62.7263 62.2819 63.7531 63.7405 64.3624C64.8743 64.8364 66.0706 65.0019 67.2911 65.0321C67.5251 65.0382 67.7591 65.0321 67.9932 65.0765C66.7424 65.3226 65.4734 65.3812 64.2246 65.1855C63.2886 65.0382 62.3263 64.8102 61.4769 64.4047C59.3244 63.3799 58.2108 60.6988 58.82 58.2153C58.9855 57.5375 59.2679 56.8899 59.4938 56.2383C57.4381 57.3458 56.6675 60.027 57.7165 62.4579C56.5706 62.0605 56.0481 60.1843 56.496 57.8845C55.8968 58.8528 55.5922 59.805 55.4853 60.8218C55.3763 61.8547 55.5296 62.8554 55.8686 63.8399C56.0986 64.5076 56.2862 65.1915 56.4435 65.8794C56.4819 66.0469 56.377 66.3233 56.2438 66.4403C55.7031 66.9184 55.0919 67.1544 54.3757 66.759C54.7489 67.4086 55.338 67.7092 56.0562 67.6991C56.5363 67.6911 56.6473 67.8767 56.615 68.3084C56.5666 68.9661 56.3205 69.5471 55.8908 70.0151C55.2855 70.6748 54.6158 71.274 53.9722 71.8974C53.8814 71.9841 53.7785 72.0588 53.6878 72.1455C52.9252 72.8536 53.022 73.4669 53.9682 73.9289C54.3777 74.1286 54.7973 74.3142 55.1847 74.5502C55.2997 74.6209 55.4187 74.8831 55.3743 74.986C55.1887 75.4076 54.9829 75.8353 54.7005 76.1944C54.531 76.4103 54.4584 76.5777 54.6198 76.7633C54.9123 77.1002 55.2412 77.4049 55.5559 77.7256C55.5801 77.7055 55.5478 77.7377 55.5095 77.766C54.6178 78.4257 54.6137 79.1419 55.5397 79.7511C55.9513 80.0214 56.1086 80.3604 56.0703 80.8203C56.032 81.2743 55.9674 81.7261 55.9311 82.1821C55.8161 83.6225 56.6735 84.728 58.1139 84.7765C59.2982 84.8148 60.4904 84.5868 61.6807 84.5788C62.9981 84.5707 64.3296 84.5788 65.6288 84.7603C67.1116 84.9661 68.2514 85.9344 69.367 86.8645C69.8108 87.2357 70.2022 87.6755 70.5896 88.1092C70.7752 88.317 71.0092 88.5772 71.0233 88.8254C71.0596 89.5597 71.6184 89.6323 72.1087 89.7837C73.6257 90.2517 75.1933 90.407 76.7668 90.4494C79.5932 90.5261 82.3994 90.3485 85.1451 89.6041C85.601 89.481 86.0388 89.2874 86.4867 89.126C86.4867 89.0695 86.4867 89.011 86.4867 88.9545C86.2204 88.8032 85.9581 88.6458 85.6898 88.4986C84.6549 87.9337 83.5917 87.4152 82.5971 86.7898C82.0767 86.463 81.6207 85.9909 81.2374 85.5027C80.7936 84.9419 80.9348 84.379 81.6026 84.1329C82.3006 83.8767 83.0551 83.683 83.7914 83.6508C85.4155 83.5801 87.0455 83.6286 88.6736 83.6286C88.6756 83.6729 88.6776 83.7193 88.6796 83.7637C87.8404 83.8646 86.9971 83.9292 86.1659 84.0744C85.363 84.2136 84.5702 84.4133 83.7854 84.6312C83.5897 84.6857 83.3234 84.9076 83.3113 85.067C83.3012 85.2243 83.5413 85.4644 83.7289 85.5572C85.0624 86.229 86.4181 86.8604 87.7516 87.5322C88.3124 87.8147 88.841 88.1617 89.3736 88.4925C89.5451 88.5994 89.7004 88.7407 89.8437 88.8859C90.4448 89.5012 90.3863 90.0661 89.6076 90.4191C88.9842 90.7016 88.3124 90.9094 87.6407 91.0486C85.1451 91.5691 82.6092 91.678 80.0734 91.6013C76.8657 91.5045 73.658 91.3108 70.4544 91.1212C67.4384 90.9437 64.4264 90.7016 61.4104 90.516C56.7159 90.2275 52.0738 90.7036 47.4661 91.5711C45.1642 92.0048 42.8664 92.4628 40.5605 92.8844C40.2418 92.9429 39.8968 92.8602 39.568 92.7755C43.0399 92.0754 49.9999 86.7999 50.5709 84.9641C44.5489 84.1349 38.6682 82.7369 33.0336 80.3947C32.8984 80.3382 32.7855 80.2333 32.6624 80.1485C32.6705 80.0981 32.6785 80.0477 32.6866 79.9972C33.2434 79.9972 33.8022 80.0174 34.357 79.9932C36.9413 79.8883 39.459 79.4727 41.7891 78.2744C42.6284 77.8426 43.399 77.3161 44.093 76.497C40.6957 76.6947 37.5223 76.0088 34.3772 75.1837C31.2603 74.3646 28.1454 73.5133 25.3614 71.8247C25.3775 71.7622 25.3917 71.7017 25.4078 71.6391C25.5389 71.6391 25.6701 71.6371 25.7992 71.6391C28.6518 71.7037 31.5004 71.6976 34.2945 70.9915C35.4383 70.7031 36.5499 70.3278 37.597 69.531C34.4155 69.2687 31.4419 68.5243 28.5227 67.5378C25.6136 66.5553 22.7287 65.5163 20.1484 63.7773C25.2726 64.8465 30.3807 64.7739 35.5009 63.8298C30.6732 63.3759 25.9202 62.6556 21.6877 59.9967C28.7365 60.7129 35.2648 59.5004 40.9418 55.0157C39.3985 55.7279 37.7664 56.1737 36.1021 56.4965C33.8849 56.9242 31.6618 57.2631 29.4083 56.7386C27.7097 56.3432 26.1704 55.6492 24.9156 54.3621C25.3997 54.4831 25.8799 54.6264 26.3701 54.7212C30.066 55.4374 33.5743 54.7898 36.9211 53.1799C37.9803 52.6695 38.993 52.0481 39.9775 51.4046C41.2202 50.5916 42.352 49.601 43.8025 49.133C39.9452 49.6676 37.3791 48.7497 36.5015 46.5124C37.2782 46.6153 38.0569 46.7666 38.8437 46.815C41.2162 46.9562 43.4837 46.5144 45.4507 45.1547C47.7324 43.5771 50.2844 42.9335 52.9696 42.6329C55.4207 42.3646 57.8739 42.4049 60.3391 42.6006Z" fill="white"/>
<path d="M54.6172 72.6055C54.8048 72.5249 54.9965 72.4421 55.176 72.3655C55.3334 72.4986 55.5048 72.6439 55.6824 72.7932C55.5593 72.9889 55.4363 73.1866 55.3172 73.3762C55.0852 73.3036 54.8552 73.2289 54.6192 73.1543C54.6172 72.9989 54.6172 72.8113 54.6172 72.6055Z" fill="white"/>
<path d="M141.469 84.4387L173.031 42.7689H141.469V34.4905H184.765V40.6796L153.282 82.3494H184.611V90.5491H141.469V84.4387Z" fill="#B12029"/>
<path d="M200.242 34.6206C203.054 34.5761 205.866 34.5282 208.678 34.4836C208.651 50.3693 208.623 66.2549 208.596 82.1405C217.864 82.1405 227.133 82.1405 236.401 82.1405C236.401 84.9422 236.401 87.7474 236.401 90.5491C224.423 90.5491 212.449 90.5457 200.472 90.5457C200.396 71.9029 200.321 53.26 200.242 34.6206Z" fill="#B12029"/>
<path d="M262.278 34.4871H272.564L292.471 90.5457H283.671L277.609 73.6736H262.083L265.056 65.3952H274.639L267.443 45.3686L251.174 90.5491H242.375L262.278 34.4871Z" fill="#B12029"/>
<path d="M315.508 34.4871H325.794L345.701 90.5457H336.901L330.839 73.6736H315.313L318.286 65.3952H327.869L320.673 45.3686L304.404 90.5491H295.602L315.508 34.4871Z" fill="#B12029"/>
<path d="M342.57 34.4871H387.86V42.7655H369.361V90.5457H361.069V42.769H342.57V34.4871Z" fill="#B12029"/>
<path d="M404.642 34.4871H414.928L434.834 90.5457H426.035L419.973 73.6736H404.45L407.423 65.3952H417.007L409.811 45.3686L393.541 90.5491H384.742L404.642 34.4871Z" fill="#B12029"/>
</svg>
